<mxfile host="app.diagrams.net" modified="2023-12-04T16:04:58.541Z" agent="Mozilla/5.0 (Macintosh; Intel Mac OS X 10_15_7) AppleWebKit/537.36 (KHTML, like Gecko) Chrome/119.0.0.0 Safari/537.36" etag="uaATNAvP4F57EsIwOdHe" version="22.1.5" type="device">
  <diagram id="JXGDXN1t1CfWcfZSpP29" name="Page-1">
    <mxGraphModel dx="794" dy="428" grid="1" gridSize="10" guides="1" tooltips="1" connect="1" arrows="1" fold="1" page="1" pageScale="1" pageWidth="1169" pageHeight="827" math="0" shadow="0">
      <root>
        <mxCell id="0" />
        <mxCell id="1" parent="0" />
        <mxCell id="VEHc4ffAzNuQ5ULbZsqk-1" value="" style="rounded=1;whiteSpace=wrap;html=1;fillColor=#DBECFF;strokeColor=#000000;arcSize=11;" parent="1" vertex="1">
          <mxGeometry x="260" y="80" width="630" height="349.5" as="geometry" />
        </mxCell>
        <mxCell id="SukpOsBtOFE_PoKHD8NP-4" value="L1" style="shape=document;whiteSpace=wrap;html=1;boundedLbl=1;fontColor=#ffffff;strokeColor=#001DBC;fillColor=#0050ef;" parent="1" vertex="1">
          <mxGeometry x="582" y="145.5" width="30" height="30" as="geometry" />
        </mxCell>
        <mxCell id="SukpOsBtOFE_PoKHD8NP-5" value="SEI" style="rounded=0;whiteSpace=wrap;html=1;fontColor=#FFFFFF;strokeColor=#0050EF;strokeWidth=1.5;fillColor=#0050EF;gradientColor=none;" parent="1" vertex="1">
          <mxGeometry x="581" y="104.5" width="33" height="30" as="geometry" />
        </mxCell>
        <mxCell id="VEHc4ffAzNuQ5ULbZsqk-50" value="L1" style="shape=document;whiteSpace=wrap;html=1;boundedLbl=1;fontColor=#ffffff;strokeColor=#001DBC;fillColor=#0050ef;" parent="1" vertex="1">
          <mxGeometry x="831" y="186" width="30" height="30" as="geometry" />
        </mxCell>
        <mxCell id="VEHc4ffAzNuQ5ULbZsqk-43" value="L2" style="shape=document;whiteSpace=wrap;html=1;boundedLbl=1;fontColor=#ffffff;strokeColor=#B20000;fillColor=#FF3333;" parent="1" vertex="1">
          <mxGeometry x="559" y="152.5" width="30" height="30" as="geometry" />
        </mxCell>
        <mxCell id="VEHc4ffAzNuQ5ULbZsqk-36" value="L1" style="shape=document;whiteSpace=wrap;html=1;boundedLbl=1;strokeColor=#001DBC;fillColor=#0050ef;fontColor=#ffffff;" parent="1" vertex="1">
          <mxGeometry x="320" y="149.5" width="30" height="30" as="geometry" />
        </mxCell>
        <mxCell id="hs-67H3lRwKoeZThqfz--19" style="edgeStyle=orthogonalEdgeStyle;rounded=0;orthogonalLoop=1;jettySize=auto;html=1;exitX=1;exitY=0.5;exitDx=0;exitDy=0;entryX=0;entryY=0.5;entryDx=0;entryDy=0;fontColor=#FFFFFF;strokeColor=#0050EF;strokeWidth=1.5;endArrow=none;endFill=0;" parent="1" source="VEHc4ffAzNuQ5ULbZsqk-5" target="VEHc4ffAzNuQ5ULbZsqk-14" edge="1">
          <mxGeometry relative="1" as="geometry">
            <Array as="points">
              <mxPoint x="700" y="204" />
              <mxPoint x="700" y="190" />
              <mxPoint x="759" y="190" />
            </Array>
          </mxGeometry>
        </mxCell>
        <mxCell id="VEHc4ffAzNuQ5ULbZsqk-5" value="&lt;font color=&quot;#3333ff&quot;&gt;&lt;b&gt;Channel 1&lt;/b&gt;&lt;/font&gt;" style="ellipse;whiteSpace=wrap;html=1;strokeColor=#3333FF;strokeWidth=1.5;fillColor=none;" parent="1" vertex="1">
          <mxGeometry x="290" y="191.5" width="390" height="25" as="geometry" />
        </mxCell>
        <mxCell id="_WFnFw3g4zazNdVXs9AY-1" style="edgeStyle=orthogonalEdgeStyle;rounded=0;orthogonalLoop=1;jettySize=auto;html=1;exitX=1;exitY=0.5;exitDx=0;exitDy=0;entryX=0.001;entryY=0.451;entryDx=0;entryDy=0;entryPerimeter=0;endArrow=none;endFill=0;strokeColor=#FF3333;strokeWidth=1.5;" parent="1" source="VEHc4ffAzNuQ5ULbZsqk-6" target="hs-67H3lRwKoeZThqfz--11" edge="1">
          <mxGeometry relative="1" as="geometry" />
        </mxCell>
        <mxCell id="_WFnFw3g4zazNdVXs9AY-2" style="edgeStyle=orthogonalEdgeStyle;rounded=0;orthogonalLoop=1;jettySize=auto;html=1;exitX=1;exitY=0.5;exitDx=0;exitDy=0;entryX=-0.008;entryY=0.35;entryDx=0;entryDy=0;entryPerimeter=0;endArrow=none;endFill=0;strokeColor=#FF3333;strokeWidth=1.5;" parent="1" source="VEHc4ffAzNuQ5ULbZsqk-6" target="hs-67H3lRwKoeZThqfz--8" edge="1">
          <mxGeometry relative="1" as="geometry" />
        </mxCell>
        <mxCell id="_WFnFw3g4zazNdVXs9AY-3" style="edgeStyle=orthogonalEdgeStyle;rounded=0;orthogonalLoop=1;jettySize=auto;html=1;exitX=1;exitY=0.5;exitDx=0;exitDy=0;entryX=0.001;entryY=0.661;entryDx=0;entryDy=0;entryPerimeter=0;endArrow=none;endFill=0;strokeColor=#FF3333;strokeWidth=1.5;" parent="1" source="VEHc4ffAzNuQ5ULbZsqk-6" target="VEHc4ffAzNuQ5ULbZsqk-14" edge="1">
          <mxGeometry relative="1" as="geometry" />
        </mxCell>
        <mxCell id="VEHc4ffAzNuQ5ULbZsqk-11" value="&lt;span style=&quot;font-weight: normal;&quot;&gt;RCA-org0&lt;br&gt;&lt;font color=&quot;#4d4d4d&quot;&gt;0.0.0.0:7053&lt;/font&gt;&lt;br&gt;&lt;/span&gt;" style="rounded=1;whiteSpace=wrap;html=1;strokeColor=#36393d;fillColor=#cdeb8b;fontStyle=1" parent="1" vertex="1">
          <mxGeometry x="160" y="241.25" width="80" height="40" as="geometry" />
        </mxCell>
        <mxCell id="VEHc4ffAzNuQ5ULbZsqk-12" value="&lt;span style=&quot;font-weight: normal;&quot;&gt;RCA-org1&lt;br&gt;&lt;/span&gt;&lt;span style=&quot;color: rgb(77, 77, 77); font-weight: 400;&quot;&gt;0.0.0.0:7054&lt;/span&gt;&lt;span style=&quot;font-weight: normal;&quot;&gt;&lt;br&gt;&lt;/span&gt;" style="rounded=1;whiteSpace=wrap;html=1;strokeColor=#36393d;fillColor=#FF99FF;fontStyle=1" parent="1" vertex="1">
          <mxGeometry x="160" y="290" width="80" height="40" as="geometry" />
        </mxCell>
        <mxCell id="VEHc4ffAzNuQ5ULbZsqk-13" value="RCA-org2&lt;br&gt;&lt;span style=&quot;color: rgb(77, 77, 77);&quot;&gt;0.0.0.0:7055&lt;/span&gt;" style="rounded=1;whiteSpace=wrap;html=1;strokeColor=#36393d;fillColor=#ffcc99;" parent="1" vertex="1">
          <mxGeometry x="160" y="338" width="80" height="42" as="geometry" />
        </mxCell>
        <mxCell id="VEHc4ffAzNuQ5ULbZsqk-20" value="" style="verticalLabelPosition=bottom;verticalAlign=top;html=1;shape=mxgraph.basic.acute_triangle;dx=0.5;strokeColor=#36393d;fillColor=#cdeb8b;" parent="1" vertex="1">
          <mxGeometry x="331" y="361" width="58" height="38" as="geometry" />
        </mxCell>
        <mxCell id="VEHc4ffAzNuQ5ULbZsqk-21" value="&lt;b&gt;org0&lt;/b&gt;" style="text;html=1;strokeColor=none;fillColor=none;align=center;verticalAlign=middle;whiteSpace=wrap;rounded=0;" parent="1" vertex="1">
          <mxGeometry x="345" y="373" width="30" height="26" as="geometry" />
        </mxCell>
        <mxCell id="VEHc4ffAzNuQ5ULbZsqk-26" value="" style="verticalLabelPosition=bottom;verticalAlign=top;html=1;shape=mxgraph.basic.acute_triangle;dx=0.5;strokeColor=#36393d;fillColor=#FF99FF;" parent="1" vertex="1">
          <mxGeometry x="389" y="361" width="54" height="38" as="geometry" />
        </mxCell>
        <mxCell id="VEHc4ffAzNuQ5ULbZsqk-27" value="&lt;b&gt;org1&lt;/b&gt;" style="text;html=1;strokeColor=none;fillColor=none;align=center;verticalAlign=middle;whiteSpace=wrap;rounded=0;" parent="1" vertex="1">
          <mxGeometry x="401" y="373" width="30" height="26" as="geometry" />
        </mxCell>
        <mxCell id="VEHc4ffAzNuQ5ULbZsqk-30" value="" style="verticalLabelPosition=bottom;verticalAlign=top;html=1;shape=mxgraph.basic.acute_triangle;dx=0.5;strokeColor=#36393d;fillColor=#ffcc99;" parent="1" vertex="1">
          <mxGeometry x="526" y="361" width="59" height="37" as="geometry" />
        </mxCell>
        <mxCell id="VEHc4ffAzNuQ5ULbZsqk-31" value="&lt;b&gt;org2&lt;/b&gt;" style="text;html=1;strokeColor=none;fillColor=none;align=center;verticalAlign=middle;whiteSpace=wrap;rounded=0;" parent="1" vertex="1">
          <mxGeometry x="539.5" y="372" width="30" height="26" as="geometry" />
        </mxCell>
        <mxCell id="VEHc4ffAzNuQ5ULbZsqk-34" style="edgeStyle=orthogonalEdgeStyle;rounded=0;orthogonalLoop=1;jettySize=auto;html=1;exitX=0;exitY=0.5;exitDx=0;exitDy=0;entryX=0.043;entryY=0.722;entryDx=0;entryDy=0;endArrow=none;endFill=0;strokeColor=#3333FF;fontColor=#3333FF;dashed=1;dashPattern=1 1;entryPerimeter=0;strokeWidth=1.5;" parent="1" source="VEHc4ffAzNuQ5ULbZsqk-32" target="VEHc4ffAzNuQ5ULbZsqk-5" edge="1">
          <mxGeometry relative="1" as="geometry">
            <Array as="points">
              <mxPoint x="306" y="412" />
              <mxPoint x="306" y="321" />
              <mxPoint x="307" y="321" />
            </Array>
          </mxGeometry>
        </mxCell>
        <mxCell id="VEHc4ffAzNuQ5ULbZsqk-32" value="&lt;font color=&quot;#ffffff&quot;&gt;&lt;b&gt;CC1&lt;/b&gt;&lt;/font&gt;" style="rounded=0;whiteSpace=wrap;html=1;strokeColor=#000000;fillColor=#0050EF;" parent="1" vertex="1">
          <mxGeometry x="332" y="402" width="111" height="20" as="geometry" />
        </mxCell>
        <mxCell id="VEHc4ffAzNuQ5ULbZsqk-33" value="&lt;font color=&quot;#ffffff&quot;&gt;&lt;b&gt;CC2&lt;/b&gt;&lt;/font&gt;" style="rounded=0;whiteSpace=wrap;html=1;strokeColor=#000000;fillColor=#FF3333;" parent="1" vertex="1">
          <mxGeometry x="468" y="401" width="176" height="20" as="geometry" />
        </mxCell>
        <mxCell id="VEHc4ffAzNuQ5ULbZsqk-35" style="edgeStyle=orthogonalEdgeStyle;rounded=0;orthogonalLoop=1;jettySize=auto;html=1;exitX=1;exitY=0.5;exitDx=0;exitDy=0;endArrow=none;endFill=0;strokeColor=#FF3333;fontColor=#3333FF;dashed=1;dashPattern=1 1;strokeWidth=1.5;entryX=0.867;entryY=0.853;entryDx=0;entryDy=0;entryPerimeter=0;" parent="1" source="VEHc4ffAzNuQ5ULbZsqk-33" target="VEHc4ffAzNuQ5ULbZsqk-6" edge="1">
          <mxGeometry relative="1" as="geometry">
            <mxPoint x="300" y="390" as="sourcePoint" />
            <mxPoint x="571" y="300" as="targetPoint" />
            <Array as="points">
              <mxPoint x="660" y="411" />
              <mxPoint x="660" y="267" />
            </Array>
          </mxGeometry>
        </mxCell>
        <mxCell id="VEHc4ffAzNuQ5ULbZsqk-42" style="edgeStyle=orthogonalEdgeStyle;rounded=0;orthogonalLoop=1;jettySize=auto;html=1;exitX=0.686;exitY=1.009;exitDx=0;exitDy=0;entryX=0.318;entryY=0.013;entryDx=0;entryDy=0;fontColor=#3333FF;endArrow=none;endFill=0;strokeColor=#FF3333;fillColor=#f8cecc;strokeWidth=1.5;entryPerimeter=0;exitPerimeter=0;" parent="1" source="VEHc4ffAzNuQ5ULbZsqk-41" target="VEHc4ffAzNuQ5ULbZsqk-6" edge="1">
          <mxGeometry relative="1" as="geometry">
            <Array as="points">
              <mxPoint x="540" y="240" />
              <mxPoint x="540" y="240" />
            </Array>
          </mxGeometry>
        </mxCell>
        <mxCell id="VEHc4ffAzNuQ5ULbZsqk-51" value="L2" style="shape=document;whiteSpace=wrap;html=1;boundedLbl=1;fontColor=#ffffff;strokeColor=#B20000;fillColor=#FF3333;" parent="1" vertex="1">
          <mxGeometry x="831" y="165.5" width="30" height="30" as="geometry" />
        </mxCell>
        <mxCell id="VEHc4ffAzNuQ5ULbZsqk-59" value="TLS-CA&lt;br&gt;&lt;font color=&quot;#4d4d4d&quot;&gt;0.0.0.0:7052&lt;/font&gt;" style="rounded=1;whiteSpace=wrap;html=1;strokeColor=#23445d;fillColor=#bac8d3;" parent="1" vertex="1">
          <mxGeometry x="160" y="189" width="80" height="40" as="geometry" />
        </mxCell>
        <mxCell id="hs-67H3lRwKoeZThqfz--2" value="SEI" style="rounded=0;whiteSpace=wrap;html=1;fontColor=#FFFFFF;strokeColor=#0050EF;strokeWidth=1.5;fillColor=#0050EF;gradientColor=none;" parent="1" vertex="1">
          <mxGeometry x="320" y="113.5" width="33" height="30" as="geometry" />
        </mxCell>
        <mxCell id="hs-67H3lRwKoeZThqfz--5" value="SV" style="rounded=0;whiteSpace=wrap;html=1;fontColor=#FFFFFF;strokeColor=#B20000;strokeWidth=1.5;fillColor=#FF0000;gradientColor=none;" parent="1" vertex="1">
          <mxGeometry x="556" y="111.5" width="33" height="30" as="geometry" />
        </mxCell>
        <mxCell id="_WFnFw3g4zazNdVXs9AY-26" style="edgeStyle=orthogonalEdgeStyle;rounded=0;orthogonalLoop=1;jettySize=auto;html=1;exitX=0.5;exitY=1;exitDx=0;exitDy=0;entryX=0.602;entryY=-0.013;entryDx=0;entryDy=0;entryPerimeter=0;endArrow=none;endFill=0;strokeColor=#3333FF;strokeWidth=1.5;" parent="1" source="VEHc4ffAzNuQ5ULbZsqk-41" target="VEHc4ffAzNuQ5ULbZsqk-5" edge="1">
          <mxGeometry relative="1" as="geometry" />
        </mxCell>
        <mxCell id="VEHc4ffAzNuQ5ULbZsqk-41" value="peer2-org2&lt;br&gt;&lt;span style=&quot;color: rgba(0, 0, 0, 0); font-family: monospace; font-size: 0px; text-align: start;&quot;&gt;%3CmxGraphModel%3E%3Croot%3E%3CmxCell%20id%3D%220%22%2F%3E%3CmxCell%20id%3D%221%22%20parent%3D%220%22%2F%3E%3CmxCell%20id%3D%222%22%20style%3D%22edgeStyle%3DorthogonalEdgeStyle%3Brounded%3D0%3BorthogonalLoop%3D1%3BjettySize%3Dauto%3Bhtml%3D1%3BexitX%3D0.5%3BexitY%3D1%3BexitDx%3D0%3BexitDy%3D0%3BentryX%3D0.266%3BentryY%3D0.065%3BentryDx%3D0%3BentryDy%3D0%3BentryPerimeter%3D0%3BendArrow%3Dnone%3BendFill%3D0%3BstrokeColor%3D%233333FF%3BstrokeWidth%3D1.5%3B%22%20edge%3D%221%22%20parent%3D%221%22%3E%3CmxGeometry%20relative%3D%221%22%20as%3D%22geometry%22%3E%3CArray%20as%3D%22points%22%3E%3CmxPoint%20x%3D%22331%22%20y%3D%22187%22%2F%3E%3CmxPoint%20x%3D%22331%22%20y%3D%22210%22%2F%3E%3CmxPoint%20x%3D%22330%22%20y%3D%22210%22%2F%3E%3CmxPoint%20x%3D%22330%22%20y%3D%22247%22%2F%3E%3C%2FArray%3E%3CmxPoint%20x%3D%22330.00000000000006%22%20y%3D%22187%22%20as%3D%22sourcePoint%22%2F%3E%3CmxPoint%20x%3D%22331.18%22%20y%3D%22246.625%22%20as%3D%22targetPoint%22%2F%3E%3C%2FmxGeometry%3E%3C%2FmxCell%3E%3C%2Froot%3E%3C%2FmxGraphModel%3E&lt;/span&gt;&lt;span style=&quot;color: rgb(77, 77, 77);&quot;&gt;0.0.0.0:10051&lt;/span&gt;&lt;span style=&quot;color: rgba(0, 0, 0, 0); font-family: monospace; font-size: 0px; text-align: start;&quot;&gt;&lt;br&gt;&lt;/span&gt;" style="rounded=1;whiteSpace=wrap;html=1;strokeColor=#36393d;fillColor=#ffcc99;" parent="1" vertex="1">
          <mxGeometry x="485" y="128.5" width="80" height="37" as="geometry" />
        </mxCell>
        <mxCell id="hs-67H3lRwKoeZThqfz--15" value="L1" style="shape=document;whiteSpace=wrap;html=1;boundedLbl=1;fontColor=#ffffff;strokeColor=#001DBC;fillColor=#0050ef;" parent="1" vertex="1">
          <mxGeometry x="831" y="234.75" width="30" height="30" as="geometry" />
        </mxCell>
        <mxCell id="hs-67H3lRwKoeZThqfz--16" value="L2" style="shape=document;whiteSpace=wrap;html=1;boundedLbl=1;fontColor=#ffffff;strokeColor=#B20000;fillColor=#FF3333;" parent="1" vertex="1">
          <mxGeometry x="831" y="214.25" width="30" height="30" as="geometry" />
        </mxCell>
        <mxCell id="hs-67H3lRwKoeZThqfz--17" value="L1" style="shape=document;whiteSpace=wrap;html=1;boundedLbl=1;fontColor=#ffffff;strokeColor=#001DBC;fillColor=#0050ef;" parent="1" vertex="1">
          <mxGeometry x="831" y="282.75" width="30" height="30" as="geometry" />
        </mxCell>
        <mxCell id="hs-67H3lRwKoeZThqfz--18" value="L2" style="shape=document;whiteSpace=wrap;html=1;boundedLbl=1;fontColor=#ffffff;strokeColor=#B20000;fillColor=#FF3333;" parent="1" vertex="1">
          <mxGeometry x="831" y="262.25" width="30" height="30" as="geometry" />
        </mxCell>
        <mxCell id="hs-67H3lRwKoeZThqfz--22" style="edgeStyle=orthogonalEdgeStyle;rounded=0;orthogonalLoop=1;jettySize=auto;html=1;exitX=0;exitY=0.5;exitDx=0;exitDy=0;entryX=1;entryY=0.5;entryDx=0;entryDy=0;fontColor=#FFFFFF;endArrow=none;endFill=0;strokeColor=#0050EF;strokeWidth=1.5;" parent="1" source="hs-67H3lRwKoeZThqfz--11" target="VEHc4ffAzNuQ5ULbZsqk-5" edge="1">
          <mxGeometry relative="1" as="geometry">
            <Array as="points">
              <mxPoint x="759" y="290" />
              <mxPoint x="700" y="290" />
              <mxPoint x="700" y="204" />
            </Array>
          </mxGeometry>
        </mxCell>
        <mxCell id="hs-67H3lRwKoeZThqfz--11" value="orderer-3&lt;br&gt;&lt;span style=&quot;color: rgb(77, 77, 77);&quot;&gt;0.0.0.0:9050&lt;/span&gt;" style="rounded=1;whiteSpace=wrap;html=1;strokeColor=#36393d;fillColor=#cdeb8b;" parent="1" vertex="1">
          <mxGeometry x="759" y="269.75" width="80" height="30" as="geometry" />
        </mxCell>
        <mxCell id="hs-67H3lRwKoeZThqfz--20" style="edgeStyle=orthogonalEdgeStyle;rounded=0;orthogonalLoop=1;jettySize=auto;html=1;exitX=0;exitY=0.75;exitDx=0;exitDy=0;entryX=1;entryY=0.5;entryDx=0;entryDy=0;fontColor=#FFFFFF;endArrow=none;endFill=0;strokeColor=#0050EF;strokeWidth=1.5;" parent="1" source="hs-67H3lRwKoeZThqfz--8" target="VEHc4ffAzNuQ5ULbZsqk-5" edge="1">
          <mxGeometry relative="1" as="geometry">
            <Array as="points">
              <mxPoint x="759" y="240" />
              <mxPoint x="700" y="240" />
              <mxPoint x="700" y="204" />
            </Array>
          </mxGeometry>
        </mxCell>
        <mxCell id="hs-67H3lRwKoeZThqfz--8" value="orderer-2&lt;br&gt;&lt;span style=&quot;color: rgb(77, 77, 77);&quot;&gt;0.0.0.0:8050&lt;/span&gt;" style="rounded=1;whiteSpace=wrap;html=1;strokeColor=#36393d;fillColor=#cdeb8b;" parent="1" vertex="1">
          <mxGeometry x="759" y="221.25" width="80" height="30" as="geometry" />
        </mxCell>
        <mxCell id="VEHc4ffAzNuQ5ULbZsqk-14" value="orderer-1&lt;br&gt;&lt;span style=&quot;color: rgb(77, 77, 77);&quot;&gt;0.0.0.0:7050&lt;/span&gt;" style="rounded=1;whiteSpace=wrap;html=1;strokeColor=#36393d;fillColor=#cdeb8b;" parent="1" vertex="1">
          <mxGeometry x="759" y="178.75" width="80" height="30" as="geometry" />
        </mxCell>
        <mxCell id="OZdCRnEIEN1C-9DjHzib-6" style="edgeStyle=orthogonalEdgeStyle;rounded=0;orthogonalLoop=1;jettySize=auto;html=1;exitX=0.5;exitY=1;exitDx=0;exitDy=0;entryX=0.245;entryY=0.076;entryDx=0;entryDy=0;entryPerimeter=0;fontColor=#4D4D4D;strokeColor=#0050EF;strokeWidth=1.5;endArrow=none;endFill=0;" parent="1" source="hs-67H3lRwKoeZThqfz--1" target="VEHc4ffAzNuQ5ULbZsqk-5" edge="1">
          <mxGeometry relative="1" as="geometry" />
        </mxCell>
        <mxCell id="hs-67H3lRwKoeZThqfz--1" value="peer1-org1&lt;br&gt;&lt;span style=&quot;color: rgb(77, 77, 77);&quot;&gt;0.0.0.0:7051&lt;/span&gt;" style="rounded=1;whiteSpace=wrap;html=1;strokeColor=#000000;fillColor=#FF99FF;" parent="1" vertex="1">
          <mxGeometry x="345" y="128.5" width="80" height="37" as="geometry" />
        </mxCell>
        <mxCell id="OZdCRnEIEN1C-9DjHzib-16" value="" style="verticalLabelPosition=bottom;verticalAlign=top;html=1;shape=mxgraph.basic.acute_triangle;dx=0.5;strokeColor=#36393d;fillColor=#cdeb8b;" parent="1" vertex="1">
          <mxGeometry x="467" y="360" width="58" height="38" as="geometry" />
        </mxCell>
        <mxCell id="OZdCRnEIEN1C-9DjHzib-17" value="&lt;b&gt;org0&lt;/b&gt;" style="text;html=1;strokeColor=none;fillColor=none;align=center;verticalAlign=middle;whiteSpace=wrap;rounded=0;" parent="1" vertex="1">
          <mxGeometry x="481" y="372" width="30" height="26" as="geometry" />
        </mxCell>
        <mxCell id="SukpOsBtOFE_PoKHD8NP-19" value="" style="shape=image;verticalLabelPosition=bottom;labelBackgroundColor=default;verticalAlign=top;aspect=fixed;imageAspect=0;image=data:image/png,iVBORw0KGgoAAAANSUhEUgAABVEAAAF8CAYAAADGnfsoAAAACXBIWXMAAC4jAAAuIwF4pT92AAAgAElEQVR4nOzdO3Lb2Lr28efs6vxgj2BDVaxigUnLI2goZdJywNhUysTSCCSNwFLCVHTMwOqEqdgjsDohS1WqEvcIGmcE3xdg0aLZuvCybgD+vyqX+2ItLEskCDx417skAAAAAAAAAAAAAAAAAAAAYBf/E3oCcG84myeS+pJ+l5Sb/3xvfl0OOtkiyMQAAAAAAACACiBErbnhbH4s6UZS8sYfG0n6OuhkUx9zAgAAAAAAAKqEELXGTID6bYsvmaqsTJ06mRAAAAAAAABQQYSoNWWW8D/p7QrU10xFmAoAAAAAAABIkv4VegJw5lS7BahS2Tf1bjibPw1n8761GQEAAAAAAAAVRCVqDe1ZhfqShcrK1JGl8QAAAAAAAIDKIEStoeFsfiHp3MHQC0mXkm4HnaxwMD4AAAAAAAAQHULUmnFQhfqSQtK1pCvCVAAAAAAAANQdPVHrZ59eqJtKVFa6Pg1n8wsT3AIAAAAAAAC1RIhaP588HuunMNXjcQEAAAAAAABvCFFrZDib9yWlAQ6dSDofzuY3AY4NAAAAAAAAOEWIWi8uNpPaRt8EuQAAAAAAAEBtEKLWRMAq1HWhg1wAAAAAAADAKkLU+oglvEyHs3keehIAAAAAAACALYSoNTCczY8VRxXqUh56AgAAAAAAAIAthKj18Dn0BAAAAAAAAIC6IkStOLN0Pg88DQAAAAAAAKC2CFGrL5ZeqKtuQ08AAAAAAAAAsOV/Qk8AuzNVqHeh57FmMehkB6EnAQAAAAAAANhCJWq1xdgL9TL0BAAAAAAAAACbqEStqOFsnkp6Cj2PNVShAgAAAAAAoHaoRK2uGHuhUoUKAAAAAACA2qEStYKaVoVa9Lp9Sb9LyiUlkgpJU0l/JOPJyMUxAQAAAAAAgKVfQk8AO4mxCvWr7QGLXjdRuXHW4dr/SiQdSzouet1zSZeEqQAAAAAAAHCFStSKibQKtZB0MOhkhbUBywD1u6R0wy9ZiDAVAAAAAAAADtATtXo+h57AC65tBqjGjTYPUGX+7E3R6/5d9LoXJoQFAAAAAAAA9kYlaoUMZ/NEZRVqTAGhiyrUQ5VVqHsNI+la0lUyntgOeAEAAAAAANAgVKJWy6niClAlN1WoNqptE5W9Y5+KXvdL0eumFsYEAAAAAABAA1GJWhGRVqFKZRXqwtZgJux01fN1pLJv6sLR+AAAAAAAAKghKlGrI8Yq1JHNANU4tzzeqr7KytQbKlMBAAAAAACwKSpRK2I4m/+t+ELUKlWhvuRW0nUynkw9HhMAAAAAAAAVQyVqBQxn877iC1CrVoX6kmNJd0Wve1f0urnnYwMAAAAAAKAiqEStgOFs/iQpDT2PNbarUGPo+TpVWZl6G3AOAAAAAAA41WpnhypzhkPzn35b+d/Jyn9fWphfS4Wkv8w/30sqHh/mU8vT3FurnfX1c57yH8WXr2zjUC/nJke7fv/N9+jTHnNy6U/z+8L8un98mNve3Hxjv4Q6MDZjqlDTwNNY56IKNYaer7mkvOh1Fyo3oBoFnQ0AAAAAAHtqtbNU5f3ur+b39YB0E6n+mU0crx1Heg67/lQZrk5Dhl4qw8E84PGrIFW836N8/T+02tlC5WvrL0m3jw/ze1+TIUSNn+8l7pv4anMwU4X62eaYe0ol3RS97rkIUwFY0GpnF1v88beejt8/PszP9p6QJaaC4cvKf3rtyfgmpo8P86Md5nCx4/E2MY2posLcAN1YHnZZafLx8WG+1UqMVjv7ot1uwlyKuirmhddrHathdnovL7Xa2d1+U3Jm9bU1Vfna8nbTtg2L38OoPnO2FXll1apU+50HLh8f5he7fOELn+MhLST91/zzvcr33OLxYb4INaGqMz/fZYDo8/M61Voo12pn9yrPnV9jPXeiUlLz61jSeaudFSr3vPnq+rqPEDVikVahTgedbGp5zBiqUF+S6jlMvZY0SsaTkE/QAFRXjA/EbEgU/qn1r1qrgrDoc6udHQSunlj1RW6+39NtA1TjUOF//i95rSpmWbEQMhyv67nApjz0BN6wfG2dSz9eW/fm158qX1uLIDP7WW5pnFRSZUNUxV1ZFYsYPsfftPI+W8icwxV4OW/MWu0skdRXGZ7G9KDz0Pw6NVWEt5KuIzlnovqWr/u+eX1dqqxQtX6eYGOpuMVUnbl0aXOwCKtQX5KqvHF9KnrdCzNnAEAcTlRWq7iQqHzQF1yrneVyExYXKr+HdZfKVCtIumu1s79b7eym1c5cBfBojkOVN243kp5a7eyp1c6+mMrxqktDTwAwDrVyDpf0d6udfTfn8b4JDhut1c7SVju7UbnPSIwrRValKq+vnlrt7M5c4wC2pCo/k7+bFQlWEaJGajib54rvxOeiCrWvOKtQX5Ko/OAmTAWASJgnzC5DwPNIwhDby/iXLhtaBbKsWPhmQi9uwmFLKsIBwIfVBxjLUPU0ks9sb9bC076qc2+9lKt8uMn5Eralkm7Ma8tatkaIGq8Yl3tZrUI1Yq9CfckyTP276HVvil43DTwfAGg0sxR9l+XomwraL8700UwdDD19fJhfORi3alI5rFhAo+V6DgdiK44A6mbZ3/Wp1c6+1X2lQaudJaY3+TI8rbpc5fnym4MgfGF5PFRLrvK11bcxGCFqhEwVah54GusWtqtQi163r+ovE+qrrEwlTAWAsFwu6z8OVR1hbiRcPXBswjL+baR6rlhIA88F9ZKrDOm/UPEMeHGsGq80MAHxkyJpOWTZscrzpc2/23/f/yOouUTlNd7FvgMRosapKVWoMf49d9XXc5iaB54LADSOh2X9oapRv8jN0rymLuPfRK7yBq7WVUwI4lRlNQxVqYAfqWq00sBUn36T9E3VW7a/jUTSF1OVWue/J/w73zdIJUSNzHA2j3Gn28Wgk41sDliTKtSX9CXdFb3uHWEqAPjleFn/oe8bMIebSd0/PswvHIxbJ4nKKqZ+6Imgdg5FkOrLNPQEEI1UZRXaU1X7bppzxne5uS6I1bE4X8K+832u7whR4xNjj1CqULeXizAVQP0tQk/gBS6X9fteiutqMymW8W/uhiAVDiQiGABCSFW+9yrVWsN8Dt2pnkVI7+HBE1z4sutrihA1IsPZPFV8TaFdVKHmas4HQK4yTP1uqm8BoDZiXA7ueFl/Ik/9x0wvsNTB0JePD/N7B+PW2U1VK5cqytVDkNgsg9TKBDlAjZyqXOKfh57Ie0yAeqN6L98HfEu0Y7ECIWpcYqzOdFGF+snBmLE7lHRT9LpPhKkA9sBT+A04XtZ/7nrTIROquLgmWLCMf2f0ZfOnSSF/orK6DIB/qcoHGdFuzrQSoDZZIemIB8Bw4HCX9z8haiQirUIt5OYmNHUwZlWkWglTi16XGzIA2+CcsTmny/odjbs6voufNcv4d7dzxQLwjkMbuwUD2NmXVjuL7vxOgPrDCQEqHDrf9iE5IWo8YqxCvR50Mhc3oIQAzztFPhW97gVhKgDY5XhZ/7GrJYBm3L6Doa8eH+ZTB+M2ibOfOxrvs+sKdwBv6scUpBKg/nBiVhcBriTa8rqbEDUCw9l86x+cB4WkK4djo7RcskmYCgCWOV7W7+rmxkWV60Ju2vM0UYwPvVF9rlp4ANhcFEGqeVgXfB4ROHl8mI9CTwKNsNXm7oSocYixD4urKlQpzt2cQ1sNU78UvW4aeD4AUBeulvWntvuomfFc9L09MZW52F9ONSoc6VONCgQXNEg154BvoY4fkREBaqWNJB3t8etM5cP/W/kpwEtb7Wzj6+9fXM4E7zNVqFsl3x64rEKVpK+Kr/I2Fsudn0+LXnck6TIZTxZBZwQAFfb4MC9a7exEbm5KzlvtbGQjoHS4mdQty/it+yxpGnoSEWMDvN31JV0EngPQdP1WO/tvoI0Yvyl867uF+VVI+mvt//2q5/nljo4/enyYx9zD/V5+gr0/d/iahe1J7Oi/e157/vS1JuD8pPIz0tX741gbbmxJiBreqcKfKNfdOqxCVTKeTE1A2Hd1jJroS+oTpgLAfh4f5retdnar8gLJpmXweWZhrHPZvx5w2RfWtjPttit7bn7/VWV4l1qaz1uOW+0sobr3VTFd1x7t+fW5pP9V+drK953MBj6JEBWIwXmrnd377MdpNpgL8RDqVmVgd79t8GUeAOeSfjO/7zv/28gDVEk64+G0X2ZjsftWO7tU2erC9vW8VL6GN0KIGl5sVaiSn75pZypPslQrvK+vMkydqgxTp0FnAwDVdKLyAt92wHPaamfXjw/zxa4DmCfsLlr7VGkZ/9Y3b8ZPX2OWQvZVhlHpnnN6Sy53/XY3NfV4rJcqkqJn4Ub3p69vtbNjldfu+Z7jviZttbNDdqKO0kJ2qrx2qS57z9TBmLsotNvDsKVDxfUQ5qbVzqY+PkfNdYDPvsgLSdcqqz53/vuZr/3Rf37lM/iztv9Z3qs6D34RgHm9fTQtN/qWh883/YOEqAENZ/NccX1QSNJo0MkWrg+SjCeFpA9Fr3uh3U6yTZRLyglTAWB7Zln/pdxs3HSj/SreXMzptok72pow+0LShanqcXVT+psCh6iPD/N9qyyxpeVmdSsbv6QODpNrvyAKbnwNtLy7Su5tnJdMoJiqDFWXFY4hJCqX1/s417q4DnjJQtKlq36jy8/gVju7UvlweNP7/HtJRxV68IuAHh/mJ6YK2mpF6qYPMdlYKqw09ARe4HX33mQ8uZB0YI7LSXMzuaS7ote9K3pdF6XsAFBLjw/zK7mp2Nl5s6FWO+vL/g1iITstBirNBB4f5Ob6gpU0DWYqXD/ITdj5q4Mxgcp4fJjfPz7Mbx8f5hcmlP23pI8qN6vxfb+Ymwp0ZxxdB6wrVC5DP/CxYdPjw7wwn8EHev+BYyECVGzPxcaxGxX2EaJilZcq1HXJeFIQpu4kl/St6HWfil63H3guAFAVLi66pLIqbSvmKbqL6pPLfdoL1ImpKDiS/Z85IWrDmRt+F6+t1PJ4QKWZQG7ZK/NA5ef4wuMUbszntSuul/HfS/pgHiR7ZX52H1WG4C+dK6sYoLKCNgIrrSRs2ujajhA1rEXoCay5DnnwtTDV94djlaWSbghTAeB9Jlx0seoibbWzbfuauthMahriRilmJki1/TPnJgrLmzjbVd+55fGA2jCh3OjxYe7zfjGRm77lyyrU1MXYxujxYf4h9INV0wplvXp/GaBWrX0JD1Hj8Yfl8ahEjd2gk00VT9XldNDJojiBmTB1lIwnhKnbSfUcpl4UvS43eADwAofL+s83rVZxtJlUIb+bMiw8Hmsv5mdu9Zpr1xYOqBezNDaW63m485/QE8DPVsJUH+3oPjuqRnVZhTqKaad7E+Qe6TlIPatggIq4BPnsJUQNbxR6AobXXqibWgtTOcluJlX5gUyYCgCvc9VLadMbojos4/+vx2PZ0LiNtuDN1OZgjpcOYzdp6AngZSv9rxcOD2O9GtVxFWpUAerSShuUjz56s6LeTH9y7whRw7tU+HBwaqpio2XC1A8qT7rTwNOpiuXNPGEqgCrweo5yuKz/tNXO0rf+gNmkIrd83HuW8b+raqEvquMvy+OxXBTYgqlodLXZ25LtatRPFsdadRtjgLq07HEbeh6ovlAPHAlRAxt0skJlo+WQQWqUVagvScaTaTKeHIkwdRvLMPXvote9KXrdNPB8AOAl3kMDh8v6X91kyuFmUtHeMEVkGnoCqlALhDqgohNojpUqR1f31YmkYxsDmYetuY2x1izE9QCaI8gDR0LUCAw62ULlCT/EzvTRV6G+ZC1MHQWeTpX0JX0vel0rFwAAUAMulvXnb/TLPJX95XuX9BWrjEXoCTQMFZ1Ag3gIUj9HNs66jxXb6R7YRxrioISokRh0smLQyS5U7kx/Jn8X2V89HccJE6aeqPy+jQJPpyoSSd+KXpcbCwCN53BZ/z+qUU3lie1NJO5NPzi8Lw89AQCAWytBqosw8fC9lj0bclHQcsUDVTTM75bH2+j9Q4gaGROmXg06mY+d6ReDTjZyOL43yXiyIEzd2rfQEwCAGDha1p+22tn6JhSvLvPfw5mDMevqf0NPALX1m+XxCEKAPZgg9aOj4fcKQE0Im1qZybNCFWrRB+yr1c4OZf9hxEYPXghRIzboZCPHYWrtTrQrYeq/FaY9QpWkRa/bDz0JAIiEi2X958uejI42k7oKtTNpRdHKBtaZ93huc0yW4wL7M5+PIwdD7/vQxMVn0TXnDTSF+dx1UZhAJWpdrISpNjdTqk0V6kuS8aRIxpMLlZWphKmvs105AQCV5GhZ/3JjP8n+ZlIL1fBhqCumR21qc0wCbBjrFef7WlgeD2iyMznoe77n19u+/yokXVkeE4iSqeS+k/2e54tNH0T8YvnAcMhsADUdzua5ypuyfI/hGnHjlYwnhaSLote9UnmR+0mBGhBHKg09AQC7M09i6W9syePD/KrVzn6X3aqyU/NzSi2OKUknVJ1sxmHFAhrOVJjb7nO8sDwe0FiPD/Oi1c6uZfd9mrTa2eEe/Udzi3ORpFuuB7z61GpnIQuRDlU+pF91VPcHu+Za7lTlpmzrf38bppv+QULUCloLUz9r+yUB93WuQn3JMkxVGaj2VX6QpgGnBAA7abWz/xd6DjV3Ium77F6g9S2OJUmjul8sW3Yj+5/5U8vjoWJa7awvN+H8nxbGmIqN1IClkew/7DjUDr2LTRWd7QCo0htFV1AqcgTnVgpFDlVWb7tuyfTHpn+QELXCVsLUVOUHQ3+DL7tX2RagsZLxZCRpRJgqiWoHAPjJ48N80Wpnl7K//N6WQmwmtRFzs3ojN2FS8I1/Wu3sLvAUUv18DTV9fJjX/hrTbGZxLnc3dFNH42I/h47fc/kOX3P5+DC/sDyP2jGf67ey+55NPX/dawoeqiJCu1brpgqTzRSiErVZBp1sIelkOJtf6u0w9UrS5aCTUe6vn8LUY5UVvXnQCYWx8RMXAGgKR8v6bWEZ/ztMeNqXuyVfkvSXo3G3kYeeQBOs7KSdS/pdbluoEIjEy/oGYvDqD9kNUXddzp1bnIMk3Voe702mv/hrXlpm7sKU82T0UlWrUG2rlhiEqDWyEqaeqTxBLy/ypiqX8HPT9YJkPLmVdFv0urn27zVbJQvzdwcA/JOLZf37un18mHPeXmMqA5cBx2/y8znOz6EavrTaO13/5rYnsiFeV4AbU8vj7Xpt8L9WZ2Gn/cc2Qq+AWJqGngBqZav9gghRa8iEpbfiQmwryXgylTRtUJjaiM3FAGAXES7rL1QGu3V112pnoeewqSnVwJVRtY336G0IOGA+0xeyVx2367nF9jkpeGsZ1EZTX0ujx4f5Ypsv+JejiQCVlYwn02Q8OZJ0oLIReR0tTDsDAMArHh/mV4qn2uGM4C4aBF1w4Z4lqgigScHJIvQEbHt8mDfp5we3mniNWWiHwjJCVOAVyXiySMaTE9UzTOUGEAA2c6LwF5bTx4f5KPAcUFrws4AjbBgH7xr2cM7q0nfTSmZbNitRFxbHAproetsqVInl/MC7kvFkIemk6HUvVW5S0VdcPfK2VajcZMy64Wx+qJ+btheSbk2/XgConAiW9dd9GX/V0AoHLrBRClA9u9wP2ryHXFgcC2ia6ePD/GKXLyREBTZkwtQzE6aeyu2uvy5dJ+OJ1afOJjy90ctPV78MZ/ORpOtBJ2PJCYDKeXyYX7Xa2e8K0yv7cpen5HDinipUOMCDEsCPJlXdAnjdvaSPu34xy/mBLSXjSZGMJxcql/lfqlofyNarUIezeV/lDtZvLU/pS/o+nM3vhrN5bvP4QEUsQk8AewuxrH9q+rIiDiy3hgtnPCgBvKhbMUeV7kGBWNxLOtqnlQmVqI4Uve6xfg6VFpJubVcAIhzzs7woet0rlUvYz2Vvx0dXrFahDmfzVNstcc0l5cPZfCrpctDJprbmAkRuofjPD3hDoGX9hHbxuGS5NRwYUd0MYEd/hZ4AUDF7B6gSIap1Ra+bq1zWnL7wv2+KXnck6dIsDUcNmFByJGlU9Lp9xR2m2q5oOtduLQ1ylWHqvcpl/iObkwIAFzwv679k191ojHbtmwW8YfT4MGcZP+CPzU2dYvCf0BMAKuTq8WFupTiB5fwWmQDtTm8HaH1JT0Wve1P0um/9OVRQMp6MkvHkQOWyz9hufkcOqlD7ew5zKOlmOJs/mbYAABA7H6HHPaFdNAi6Nle3gMKlK15XgHdV3MviLWnoCQAVMFVZfWptdRchqiUrFaib6us5TOWis2ZMmPpB0pHKN24MbO8ofG5xrFQrYepwNq/bRQ6AmjC9C13v0E64EgcC1O3w2f2+QtJHmzdzAADgH6Yqw9Mj2+2YCFHt2TVQ6kv6XvS6dyaIRY0k48k0GU+OFD5MHdlsIWGpCvUlqcqHEU/D2fyCMBVAjEyVqKvVBlcs4w+ukHRCgArLriQdPD7Mb0NPBGgolr8D9TZVuZ/AgYvwdImeqBaY8DPfc5hcUl70ulOVPVOne46HiJif59RUHX+WmwDyLTFXob4kMcf4PJzNryVdDToZm7IBiMmJpO+Wx1zIfZUr3nYrdkuHPYXK19QlrykguNTmYDsGNFPZ66tuaxyg6u4fH+YffB2MENUOm4FSrjJMvVe5k/rI4tgILBlP7iWdFL3upcrXTd/DYW1XoSbyFwITpgL/NF3794Wk//qfxg+uH6pE6fFhft9qZ8tzuS0n++4Yip1NVQZd08DzQPUtVL6e/qhD1WmrnaUEwKiJPPQEbOP9GcTC/HKpkPTXFn9+4WgeVXHYame5r2s4QtQ9WapCfcmhpJui1z1XWZk6cnCMyhvO5rnKys5cz724lk/9rwedLMolkSbU9BWmfrU83qnl8TaxDFN/H87mRwSpaLLHh/lR6DmsarWzRoaoUrms3+bfnwDPu4XM9QI3obDk7PFhfhV6Epal4gYdFddqZ7b3IFl4/rrXHDoYE2/7yuaf7xrp/Qwi1XZ7Cr3nRtKBxfFeRYi6P9c3j6lWwlRJtzZ3WK+y4Wz+RS8HestKyf5wNp9Kuhx0sqm/mW1uJUw9U/l3+Sy7GzNMbbaGMFWon22Nt4NDSXeSvJXrAwBqo1DZy/ZPSbc16D17r/Lv5MOfno5TdZ9b7WxERXktLc8f+7D9PppaHq/OcsvjLXb8Otsrh35T+TAQiMl/NykMaLWzT7L33kxb7ezCR8BNiLoH098y93S4VGW6/qXoda8lXTU5TB3O5jfarHozl5RXIEwtJF0Uve6V7IaptnvrnSr87ruHw9n8YtDJLgLPAwAQn9Wg417S/6kMGhY1rDY9o3r5XWd6P/j6LOnY0vFSlddKF5bGQzzuY1sJgq38Znm8XQNx2w/vcsvj1VVjc5PIXcrua3j5IHNhccx/IETdT4iKvB89Ipsappol/P0tvyzXc5j6ddDJRlYnZclamNpX+RpLdxyublWoqz6JGxQAqJNLlsfBgfv3guZWO1vIXogqSec+buIAbKbVzlLZfY9Lu4ehC5uTUNkL0mdf1CNJxS4rOVrt7E7hQt+qrzyppceH+bTVzqay97pIVBYeOn3g9S+Xg9dZ0eum8r/D+qplmPpU9LpfzHyaYp8WCrmkm+Fs/jSczft2pmNfMp4UyXhylYwnByp3gF5sOUShsvrCpr7CV6EupcPZPA09CQAAUG0mfBhZHtZmnzegKvLQE3hF38GYO4VyjtrI2A6IX/X4MJ/WoBUO4mI7s8hb7czpe4IQdXexbKSRqFw29FT0ujd1D1NNFWpuYahUFQhTJSkZT0ZbhqmFpJNkPLH9ARdLFepSGnoCAACgFs5kd7ln3mpnfYvjYTeNWq2Hf2q1Mxcr6fZtDzO1NI+l2O7RgI3bZ5hQfmT5+F/Me98JQtQdRFCF+pq+6h+m2g6vU5Vh6t/D2fzCLFmP0kqY+lGvf/iOJH1IxhOrDcZN0JzaHBNAbXCTCqDSzEZQ15aHdXoTh/dRMQe52c9h3/ss2xuMpa4r7wDHbO/jkurlDcitIETdTSxVqK/pqwxT74peNw88F2ssVqG+5Ed7hAqEqbfJeHIk6UBlv4/lr38n48lJMp4sHBw2utd8rJuEAQ3ETSqAOriS3YdCy2tLAAGYXqgu3oP7hqBTG5NYQzUqKstRW53zVjs7tDymJELUrRW9biKPfUf2lEu6q1GY6uNCdD1MTT0ccyfJeLJIxpPpyi8n1WCRVqFarbQFqsTVBQEANJmjatRTztlAMN8cjLl4fJjvdR9iNruzfd9GCxFU3aXsvy++WB5PEiHqLlwsCXAt13OYWpUA+CcmzMw9HnIZpn4fzubOSsErIsYqCts3OUCVVO0zCAC2EbJFyJXs757NJlOAZ6129kWSiwcYtgo5XBSE0EIElWWqUW3f4zt5uECIugVThVrlUvlc0rei130qet1+4LlsK1SQl0j6MpzNnTzFiN1wNj9WfFWoU5byAwBQW3+FOrCpRrXdm+2w1c6a/kAe8MaEJq7ec7ZCnj8sjbMqkaPKO8AT2211JAcPFwhRt1PFKtSXpJJuqhKmmirUfuBpnJqerE0T40MD2zc3AAAAkqTHh/lI9qtRz6kQA9wzAaqr6u+RqZbbm2kJYGWsNX2W9aOqHLXVsd6f/Bebg9VZDapQX5KqDFPPJX2VdOWqr+aeYllOfi43jcCj5Hgjr105qUItet1UZa/j31f+80LSH8l4Qv9VAACa5VJ2g5hlhdiJxTEBrGi1sxu5LbyxXcjxVW7uc29a7ez+8WHOxp+ooiuVuZvNB4+nrXb21dZ7gkrUzfVVjyrUl6QymykVve6FCYyjEEkV6lIe80ZTDsQSXq/6anvAotc9lfRd5c1NvvKrr+q2vwAAADsy1ai2A4h+q53llscEGq/Vzg5b7ey73N4zWqtCXR3T8nir7iLc1C7GYi1ExlSjnjkY2tqDUULUzdWtCvUlP3amjyhMje37noaegA+RVqEuBqc56eUAACAASURBVJ1sZHPAote9URmevvVaT1Wh9hcAAMAKFzdx9CsELGm1s6TVzi5UFkO4DAxd9EpebqQzsj2ukagMUnNH4+8iWL9rVIujtjrW+pMTom7A7Gifhp6HR8sw9e+i170xS529G87mieKpQm2a2MJryfLFi3lf97f4klRlmPp3RA8ZAACAA48P86nst3E6NKEPgB212llq3kdP8rNy7tpBFeqSy70elkEqG9uhily8N6z0J6cn6mZ+Cz2BgPqS+kWvO5J0mYwnC4/HrstGXpViWhYch57HGutVqNq9GmT5kOFz0eteK95ewgAAYD+Xsr8y53OrnblYGgzUlgk+lvsX+LxPuX98mF+4GvzxYb5otbOR3BYOfWm1s98knYU675if368hju3AfyxX+CayX0m9MNWclfX4MB+12tln2f3eWOlPToi6mdj6iYTQVxmmXibjyYXrg5kq1NiqIQsXmxpFKMZeqLarUPvav7p8PUwdeX7IAAAAHHp8mE9b7Wwqu0Hq8ibuo8UxgVox/TwPVQZvucLdj/vYDO5MZTDssnjoWFLeamfXkq5M30nnWu0sVZkj2N4oKKS+4l8tO5Xbnru+nEm6szxm32wyNd11AELUzVBl9uy86HX/NxlPXPSJWhVjFWrtd2mPbCOvpcJBFeoni2Mtw9TzQBXbAIBmOmy1M9tj2q6IqUPF5YnKZcM2HbfaWb7PTZxHnyLpqxi6sirZ4vuQKlArOJdVk5t45Xv00n9b96vK80+qeNronfnY4f7xYV602tml3PdMXt6zfGq1s69yGKa22tmxyvut2FY3okIcPciUyk2mDnb9YkLUzfwlTgCrTote949kPJm6GDzSKlTJbc+aWMRYhXptc7Ci183lbtOsvsK1vwAANEsVNimayv7mEF45XG5702pnH3xVhO2hH3oCxlRhK6sOZb8iyoWLwMevwvdoE6PHh/mVr4M9PsyvWu3sd/nZ2DeVKQAx57Y/JE33ORettFv4Te6ratEsLtrqpK12drHrQydC1M2MFGe4FNJn2W+2vxTjiXc06GSL0JNwKdYqVEm2L2B8vJf7KsPUW0nXrh44AEBgi9ATADy5lP1rpFTlyqsLy+MC2M/948PcxzL+dSeSvsvvfXDf/FKrnd1Lupf0X/P7W6Fqbn7/TXFVD6NmHFaj7tyf/F+WJ1JLppqs9ku5t+SyMjfGwLoJVagxVv9eDzqZtQoNx1WoLzmWdFf0unfm2ABQJ4vQEwB8MDdZIwdDn5uegQDicC/pKMSBzXnGdcu8txyqDFTPJX1TWVX82q9z8ysXASrcc/FQY9mffGuEqJs7UXlSheEiFBrO5n3FdyJuQhVqIqpQXcpFmAoAQJWdyc0+CTcOxgSwvXtJRyFbbJi+v6NQxwdi5PBB5vEuPb8JUTeUjCeFyqdS08BTqbsYq1C/hp6ABzFu5GW7CjWV3yrUl+Qqw9SnotftB54LEB0qsgDEygQrVvu0G7nZhAVAOMED1CXTSmAaeh4R+zX0BBCEq5XBN6an78YIUbeQjCdFMp4cSfooTmyS5WV8kVahTgedbBp6Ei5FvJHXyPJ4MQX0qaQbwlTgH9LQEwAcY1VTtV3JTTXql21v4gBYc6tIAtQVH8XnxWs4VzaQw2rUVGVB2cYIUXeQjCe3JkxtcmXqwsHO4zEGeU3ohRpjFarVFgqmCrVvazyLUj2HqadFrxvbzwEAYNf/hZ5Aw1j9XHVYjZoqroe9QFNcPT7MP0YWoC7PNUciSAVWuWqrs1V/ckLUPSTjybTBYarVC8jhbJ6rbGYdk9pXoRpNCK9jvzFJVTa2fip63QvCVAAArLB+bfn4ML+Qm03VTlvtLLZrYaCuCkkfHx/mITdyehNBKvAzhw8ypS36kxOiWrASph6oGY2gC9V7qfVS7atQTQuF2AK7plShviRR+V4gTAUAIF6urhF32ikYwFZuJR08PsxvQ0/kPStB6jTwVIBYuGqrs3F/ckJUi5LxZJGMJyeqf5h6bTbassJUoea2xrPkviFVqE0Ir2P8O75nNUy9MUEwAACIgNlBe+Fg6LzVzvoOxgVQvmc/xrh8/y2PD/Pi8WF+pDI8AhrNdTXqJv3JCVEdWAtTXSXloRSyfwKPMeRy9caMRqQbed1arkJNJFV5x9tEZRUtYSoAAHFxVo3KJlOAVYXK9+uHKlSfvsa0HvioemULwC6u5OZB5rKQ6U2EqA6ZMPVMZZh6qXqc8JpQhboYdLJR6El40ITwOsZNs3bV13OYSs80IB7T0BMA4J+pRp06GHqjm7gGykNPAJWzDE8PHh/mF1WqPn2NCYE/qLnXHiOVQTIazLyXXT3IfLc/OSGqB8l4UiTjyYXqEabarkL9ZHk8G5rSCzUNPI11VjfyMlWoMW6ata++pO9Fr3tX9Lp54LkAANBkLm/i8j2+/k9bEwEqaKGahaerHh/mC7O8/0TVzhU2tRqGn9Tt54ndOGyrI73Tn5wQ1aO1MPVE7n7orowsV6Gmim/Dn6ZUocYYLtq+EalTFepLckl3hKkAgIjVeuXE48N8KncVYWwyBWznVmXP01qGp+tMiLQs0qqjhaQzPYfhi7DTQYRcvfbf7E9OiBqACVNHyXhStTC1CRv+1PVD6AfTQiG2mxqrVahGjEGxC7mew9R+4LkAALCqzg8zl1xdOx622tmpo7GBOihULu8+kfRvs2FUZXue7sJsOnWh542tqx4cL3+mRyYMv6p7GI7dmQcJ946Gf3XF9C+ODogNJePJSNLIhB+fFV+4tTRKxpOFrcEirUItVD7BrLvah9dFr3usZty4rcol5UWvey7p0pxbAACAQ48P82mrnd3KzUaW5612NiJEACSVhUf3KttVTB8f5q7Ck8oxVZonrXZ2pvIe+7Pia932mkJlRf8fkm4dne/uJR05GHfj41fgPG7ze+Tt7/r4MP/g61hLhKiRWAlTc5UhVx5yPi9oQhXq9aCTxX5y20vEG3lNLY8Z68MIH1JJN4SpAAB4cyY3IWqhMhCxvSdBlSxUnVV7VTVVPPcH93oOYP40/3yvaoRQwZnv0ZWkK9NX+ZPKc1NsxSX3Kl93f/qoHjbfl6nr41QZ36PNEaJGJhlPppKmkYWptqtQE8VZhdqEC9QYw+vat1AIJFUZpn6WdGSznzF2ciZ7F7BRVV6YzQ2azObPtmpsVi1E9bp2aKTwNymLyHvLjWTve7SwNM6bzPfzf3wca0Mjld/Dgmo9Z9Vnsb+PtmHjc4yQMzIrPZtPTKCaS/pN/vOFhcrP+L/MfHitoNJi+rDHC4pe91BlOX4/4DQ+JOOJtQuw4Wx+ofjCvMtBJ7sIPQmXhrP5oaTvoeexZjHoZAe2By163QvF9xoL6V4EqQAAAEDjmVD1UNJ/zO+p9lv+vzC/CpVh6ULlg4bpHmMCUaISNXImvDwpet1LlaFQ3/MUppYD1ETxbfjTlCrU2L7vkrsq1IWjcavqUNKppIvA8wAAAAAQ0EqV6j+YgHUTVJSikahErZii103lN0w9Mi0GrIi0CvVq0MnOQk/CJbOR11PoeaxxUoUqSUWvm6j8+zZ1ie1LimQ8+XfoSQAAAAAAUEWNDlGHs/mxpN9VVmkdqnwas5D01cFGN1aZkOhUZXWhq6Bomown1voImSrUGIOtg0EnW4SehEvD2fxG8fWhPRt0MmcVwCzpf5HVhyIAAAAAADTFv0JPIIThbJ4MZ/M7Sd9UBkvLnbxz8+93w9n8zuxkHqVkPCmS8eRC0oHKJdEuSultL7U+VXwB6qgBAWqq+ALUQuWmB86Y94fTYwAAAAAAgGZoXIi6Ug2Zv/NHcz2HqX3H09rZWph6Jnu9IO8dVKx9sjyeDU3YGf449ARecD3oZM576CTjyYncPWQAAAAAAAAN0bgQVWX16TbVkLmkm+Fs/lSBMPUqGU8OJJ1o/zD1ev9ZPTPfu9TmmBbUvgrV+DX0BNZ43cjLQ8U2AAAAAACouUb1RDXL8+/2HGYh6XLQyUb7zse1otftq+wJmW75pVZ7oUrScDZ/2mEertW+F6okmdYVeeh5rLgcdLKLEAf21Es4VmwsBQAAAADAjppWiWpjk5lUZWXq38PZ/MK0B4hSMp6MTGXqR5WbZm3i3vx5ayKtQp02IUA1FqEnsMJrFeo6h+0vqsBqdTkAAAAAAE3SmBDVbK6TWxwyURnKPlUgTL01laVHejtMvVK5e7ftJc8x7pDehF6oS3+GnsCKWx+9UN/joP1F7IKG1wAAAAAAVF1jlvMPZ/Mbud2hvFBZ6RV9n82i1z1UGSgvg9+FpFsH4amGs/mxyj60MZkOOpnVdgUxW9lMLYagP9oWCnu0v6iCS1OBCwAAAAAAdtCIENVUoT55PORIZd/HhcdjRinCfpySdDToZNPQk/BpOJtfKHxF8GjQyU4Cz+FdRa+bq/xe5WFnYtW/XTwkAQAAAACgKZqynN93eNRXucz/S8zL/F0zG3nlgaexbtq0AFWSzEZOo8DTqEQLhWQ8mW7Y/qIqRgSoAAAAAADsp/YhqqlC7Qc6/KmkuwYHqaErH1/yNfQEQjFVoGcqW0/4Fn2bi3VrYeoo8HT2UYnwGgAAAACAmNU+RFX4IO8wgjl4F2kV6mLQyUahJxHSoJNdKczO9JXdGd6EqScqv2+jwNPZ1igZTxahJwEAAAAAQNXVuicqG+qEE2kv1BMXIWrR66aSjiX9R+WmRH9Juk/Gk1vbx7JtOJv35X4zpVpt5GV+3ucKV+G+jQNCVAAAAAAA9lf3EPVC8VSBXpq+lLUXYCOvTSwGnezA5oBFr5tI+qLXw7SFyl3RRzaP64LjMLWWG3mZMLUv6bPieFCzbmQqaAEAAAAAwJ5qu5zfVKF+Dj2PFb+FnoBHsQTXq6z2hTQB6p3erkZMJd0Uve7fRa97Yb4mSoNONjIh80fZ3Uyptht5JePJIhlPLlQu879UmF6zb2ls/18AAAAAAGyrbYiqclOnaEOrugq8kddrXPRC/aay3+0mEpXB8lMFwtRbs/Te1s70td/UKBlPirUwdRF0QqVpMp5MQ08CAAAAAIC6qGWIGmEVapPEWIVqtSKv6HVz7dbvdT1MTS1Oy6pBJ5uuhKm79natbRXqS5ZhajKeHEg6UdgwtfbhNQAAAAAAPtUyRFW5yU9s1X5/hp6Aa5FWoRaSriyPuW9QvBqm3lQgTP2o7XemL1S2BmikZDwZBQxTqUIFAAAAAMCyuoaoMVZDjkJPwIMYq3+vB53MWq/KPapQX9NXNcLUxaCTnWizMHUq6cDm972q1sLUqafDUoUKAAAAAIBl/xN6AraZXcZvQs9jzcgEULVlWig8Ka4K4EKWw7yi172T3RB13a2k69grCU3V8bGk31f+872kP5q0hH9bJoQ/l7vX0H0ynnxwNDYAAAAAAI1VxxD1SeWu6DH5MOhk96En4dJwNr9QfBXAl4NOdmFrsKLXPZT03dZ475hKuow9TMVuHIapJ8l4MrI8JgAAAAAAjVer5fymCjUNPI110wYEqLFu5DWyPJ7Pv2Mu6a7ode9M4IYaScaTaTKeHGn7XrNvWRCgAgAAAADgRq1CVMVXCSk1oz/hqeJaxi+VLRQWtgYz/Ur7tsbbQq4yTH0qet0Qx4dDyXiySMaTTXvNvqcJ5xoAAAAAAIKoTYg6nM1zxVmFOg09CQ9irEK1HSiFDuhTSTeEqfX0Qpi6bR/fKVWoAAAAAAC4U5sQVeFDrpfUvjLMtFCgCtWfVM9h6mnR68b2vcce1sLUS20Wpt5L+uh0YgAAAAAANFwtNpYyVah3oeex5n7QyWq/S3akG3kdWA5RbxRPiLqukHQt6SoZT7atXkTkTEh+qrLaez0wLyRdJ+PJhe95AQAAAADQNHUJUe9kf5frfZ0MOtko9CRcMlWoN6HnsWY06GQntgYzIdaT4qu2XUeYWnNFr3uo59dhkYwntd6wDgAAAACAmFQ+RI20CnUx6GQHoSfhWqRVqEc2+9AWve6F4mwV8ZpC0q2ky2Q8WQSeCwAAAAAAQC3UoSfqp9ATeEFTeqGmgaexzupGXqYKNcZNs96SqGw98FT0ujemnysAAAAAAAD2UOkQdTibp4qvV+Wi7sv4jRjDRdvh9aniX8b/lr6ew9TD0JMBAAAAAACoqkqHqIpzmXUTqlBzSbGFclShvq4v6XvR694VvW4eeC4AAAAAAACVU9kQNdIq1KIhVahNCK/7qnYV6ktySXeEqQAAAAAAANupbIiqOIO869ATcM1UoeaBp7FuYbMK1ahLFepLcj2Hqf3AcwEAAAAAAIjeL6EnsItYq1AlXYWehAcxhtdWq1BNsJjaHDNSuaS86HXPJV0m48ko7HTiNZzNlxt2/abnCuU/JY0GnWwRaFoAAAAAAMCT/wk9gV0MZ/MLxRfmXQ462UXoSbg0nM0PJX0PPY81i0EnO7A5YNHrfld8PV99WIgw9R/M+eazXm/vMFX5/p96mhIAAAAAAPCscsv5TUVYbEutm1KFGtv3XXKzkVcTA1SprL69KXrdv4te98JsrtVow9n8RuUDm7e+F7mku+FsfmfaXQAAAAAAgJqpXIgq6VTxbfgzGnSyIvQkXIq0hcKiIRt5+ZaoDA6fmhymDmfzvrZ7zed6DlOPXcwJAAAAAACEUakQNdIqVKkBG0opvvYJkpsqVDxbDVO/FL1uGng+vu36ms8lfRvO5k8miAUAAAAAABVXqRBV8VahLkJPwqVIq1ALSbcOx8azROV776nodW+aEKaa8DPdc5hU0g1hKgAAAAAA1Ve1EPVT6Am8oAnVkDFWoV47bKHgKpytg76aEabafM2neg5TL0xFPQAAAAAAqJD/CT2BTZlKrpvQ81gzGnSyk9CTcMkEPn+HnseaQtKBqxDVhIPfFV/Vc4xuJV0n48k09ERs8XCuKVS2ALmqey9lAAAAAADqokqVqDFWQzahCvU09ARe4LIKVcl4spB05mr8mjmWdFf0undFr5uHnowlrs81P3rNmsrU1PHxAAAAAADAnipRiRppFep00MmOQk/CteFs/rfiqsh0WoX604F63WOVr7uY/v6xm6qsTK1kS4ThbH4s6VuAQ19JuqQyFQAAAACAOFWlEpUq1ABMhVxsAeKtr6DJBIEHKn/WhFubySV9K3rdp6LX7Qeeyy4+BzruqaQ7+qUCAAAAABCn6ENUS7tk2zYddLJp6El4kIaewAu8htfJeFIk48mFyjD1TNLC5/ErLJV0U6UwdTib5ypD4FAOFaYKFgAAAAAAvCP6EFXSp9ATeEHtq1CN2KovR4NOtghxYBOmXiXjyYGkExGmbirVc5h6WvS6MVdaxlDxnpsHRwAAAAAAICJR90Q1lWF3oeexphG9UJci64l6ECpEfYmpsDxXnBW7sfqxM30ynkQT0kd2rrkddLKPoScBAAAAAACexV6JGkNl2Lrr0BPwLJYNgoJVob4mGU9GpjL1SOWGSnjfj53pi173IqLK1JjONXnoCQAAAAAAgJ9FW4kaWWXY0mLQyQ5CT8Ins7nUd4WvRo2qCvUlRa+bqwzj8rAzqZyRpMtkPFmEOLh5jT+FOPZrBp0s2nMzAAAAAABNFHMlakyVYUtN6YX6gwkuzwJPYxp7gCpJyXgyTcaTI5WVqaPA06mSvsrK1Jui100DHD/Gcw0AAAAAAIhIlNVOMVaGqYFVqKtMZfCNwvT/PBp0smmA4+7FBILnKkNCbG4k6cxHz9RIzzX3g072IfQkAAAAAADAs1grUWOsDGtcFeqqQSebmhDZ98700yoGqJKUjCeLZDw5kXQgKlO30Zd056lfaoznmq+hJwAAAAAAAH4WXSVqpJVhTqtQTS/NH/+ajCf3ro5ly3A278vPzvSVrEJ9ialM7Uv6rPA9Zqtg2R7BiUjPNYXK/r/Oq3ABAAAAIAamgObQ/Ouhfr5f/lWb3T//ufLPC/NLyXgy3XuCgBFjiHqj+JY/Xw462YXNAc1J4lQvB2oLldVoVz6WNO9jOJsfq/w75A6Gnw46mbMQLZR3fvb42ZGrD73hbP5F5c8hJtbPNQAAAAAQ2kpQeijpP3oOSw/f+jqLpiqLVv6SdC/pPtTmxqiuqELUplSGmZPHnd4/WRSSrlWNMDWX/Z3pTwadbGRxvKishKmfFKbXbBXcJuPJR9uDDmfzROW5JqYQmypUAAAAALVgVtzmKitJDxXnPW+hMlD9U+VKyGnY6SB2sYWota9C3SJA/enLVIapo9iflJgw9bOk4z2HatRGXkWv25ef9ghVs0jGE+uvg+FsfqH4+qFShQoAAACgklZC09/kZqWqL1OVoeptFVotwq9oQtSmVIYVve6F9gtvRpIuKxCmptpvZ/qPg052a21CFUGY+k/JeGL1PBXpuUYqzzWL0JOAG2t9nlAd97GvBAml6HXX+5VZQQWIG5yDfsL72hJX54Gq4vxlx9p+Idbxc7LHfLYcS/pdZWhax/PBQmWo+kcynjQun8A/xRSiXqjmlWHmJGMrvBmpvmHqaNDJTpxMqCJMmPpJ1X6CZ4P1StRIzzWNf83XnbkhuAs9D2zNWV/mKjMbJbpqv/SBqg/7OAe96l5l0cRC0n/Nvy94DW6m6HXvxLXqa6bm93tJ/ydeWxsret3/53J82wUaTbMWnO67+rRqCpU5zFfey831S+gJSD8qwz6HnscLriyP15e9pzN9Sf2i172VdB3rTZ6prDsZzuaX2mxn+qtBJzvzMLWoJePJSNLI3PTY7jVbJVY/nCI+11yGngAAbKHvcOzPknioBF9erM4tel2pvAaZqtyAZBp74QKik6/9Lumn19ZqD8aFx3kBOzH3pZ9UBqd1rDjdxHJPk9Oi171X2XLxltUNzRJFiKryhRjbG3HkYIMXF+HNsaTjotedqqxMnTo4xt5MmHoxnM2vVP68V/ukLFRepF6ynPln5uc5bXCY+tXyeDF+6I943QOoClOB4vJhVL/odc+4IUEEljtIS5KKXnchlnTCjuVrqy/99Npa9mDk/IcomM/8vsrP/TToZOJzKOlG0pei1x2pLGxbBJ0RvAgeojalMswsz05tjrkml5SbMPU61os7E0xfhJ5H1ayEqan26zVbJQsHr+PYlvFLVKECqBYfD6NOxbUC4pPqeSVYIelWBKqwI5V5bUm6MSsN/xCBKgIx95yfZXclbV2tVqeOVIGWi9jPv0JPQM2pDPMV3uSSvhW97pMJblEjyXiySMaTE0kHKvux1JnVcHE4m/cV3xNUqlABVI2P65lPHo4B7GNZnfWt6HX/LnrdLyZ0AGw4Vlnh9lT0ujdmAy/AuaLXTYte90Zl3/MYVwvHrq/n920aeC5wJIYQtfaVYR6qUF+SqnySSZhaQy+EqXV7Sr0wfWFtivFcY7tdAQA4U/S6x/JzPZNy7YIKWVYhLW+c88DzQX0sw/rvRa97x2sLrqyFp/3A06mDvp4/EwiiayZoiNqgyrCQ4U2q5zD1lDdxvayFqZeqT5jahCrU6aCTTUNPAgC24LP9EtWoqKK+pDsTeKWB54J6yfX82soDzwU1UfS6SdHrfhHhqSt9lWHqaeiJwJ7Qlai1rwzzWLXxnlTSF5Vv4gvC1HpJxpMiGU8uVI8w1UUVau37LgOASyYQyj0eMmcJKyosF1VIcCMXQT0sMMHectk+3ElUbj71neuaeggWojaoMiy28CZRGV4TptbQWph6ImkRdEK7ubY52HA2z7Wyu24kqEIFUDUhHnzHdg0FbKuv8pr7OPREUDu5zP1c4HmgYopeNy963e8qC6zIAvw5VNma4yL0RLCfkJWoMV4Y2+6Fmstv1cY2lmHq3zQ+rh8Tpo6S8aRqYWoh+xtmxVjxThUqgMowD1z7AQ7d52EvaiBRuQHVN17PcOCcCjdsYmXp/p3iKzBpEt6zFRckRG1QZViM4c1L+mIXudqqWJh6nYwn1loRmHNNbms8SxZUoQKomJBL/VhmiLo4Vnm9Hds9EKrvUOUS/37oiSBOprjru/hMjQXv2QoLVYkaY7jYpCrU1/T1HKZygVczK2HqkaRp4Om8pJB0ZXnM2p9rAMCDkKuH2GAKdZKoXM7ZDz0R1E6icjPhm9ATQVxWqk/TwFPBz368Z1mlUC3eQ9RIK8PuG9ALdRt9lRd47P5YQ8l4Mk3GkyPFF6Y2pQp1FHoSALApE/aEvLhPCZxQQzf0xYMjfXMPRyjTcEWve2h6n1J9Gre+yqpU3rMVEaISNcbKMKsb2Zgl8XVoIJ/reffHPPBcYNlamDoKPB3JfhVqjNVLVKECqJoYHgrHeD4H9nVO1SAcyUUo02hmMzt6n1bHoWj3UhleQ9QGVYbFGBTvI1f5QczyoxoyYeqJpAOFC1NHlqtQU4XZBOUtVKECqBTzADWGC/qcGwvUVJ8gFY4sey4SpDaMWb7/TWFXkWB7icr3LNc7kfNdiRpjJYHtXqip4gtvbDlUufzoiTC1fpLxZBEwTLVdoRnjgwyqUAFUTQxVqEsxzQWwqV/0uiy3hQsEqQ1S9LpJ0eveieX7VbYMUvPQE8HrvIWoDaoMizG8sS0VYerGhrN5OpzN+8PZ/ML8Oh3O5tE+YVoJU/+tMvizViH6ilEynixsDRbpuaaQdBt6EgCwqQhbE/UJAlBjX8zyW8C2Q0lfQk8CbpnP7DvFt+oX21sGqf3QE8HLfvF4rBjDRdtVqIniC29cSlWGqV9U9pW9srkku+qGs3mi8qKl/8r/n0q6dLCpmRXmZ3lR9LpXKp9ofpabZSFNqEK9HnQy3hsAqiTGc+mppIvQkwAcuSl63UUyntyHnghqp1/0uv9NxpOL0BOBfWb5953quXz/Xj8X9NxL+r+Vf/+PykxiKXc/JW++FL3uPZ8J8fESojaoMiy3PF5VJCpvtj4XvS5hqn4EqO81884l5SZM/Rprv8wXwtRP+vnDah+2q1BjfJBRyP6mWQDgjHkoHGNV3CcRoqK+Ekk3kj6Enghq6bzogl284QAAIABJREFUdafJeDINPRHYU5MA9V7SQtJf5p+LfV+nZjl8ovJe/Dfze9W+R8uK1COC1Lj4qkSNsZrBRWVYtEu0PVkNU0eSrm0GZBWzzW6Iucow9VxlZerI1aT2sQxTVQaqfZU/63TPYa/3/Pp1MfYAogoVQNWcKs6bjbTodfvJeDIKPRHAkcOi172gYhCOfCt63YOmF7vURYUD1KmkP83v9y5ejysh7I+iOfP9ylWGqrmq8X1bBqkfGpyrRMd5iEplWCMlKm/ATk2YetmkN/1wNu9rt0A9lXQTe5gqSeYGdrRnmHpr86maOdfEtvEI5xoAVRTjRqBLn+R/80O8b6rypjhWv6q8Pl1WJsXsvOh1ra7UqbCYNuVcvoaW8kDz2Mey2vlj6IlgPxULUJcrgP+QNA0V4pv7znuZezPTh/p3lStvYv4+JiofgBzxACQOPipRm1QZRpn1P/VV9uEZqTlh6r6V16mew9Svkq5irWRcCVOPVQaY+YZfei/pxPJ0Yqycuo31ZwcALzEPx9LA03hLXvS6hyxti86fVaqeNAHEcplnrvhe8zeSjkJPIrQqvKbMa2kZzv+q8rWUB5zSe46LXvc4GU/Y8LSiKhSg3kr6Gutrzczrtuh1z1QGqZ8U73v3UDwAicb/uBzcVIY9Ka43eCHpwEWwYXqI/W173Jq5VbnMfxp6Ii6YKtQby8MWMht3xR7Imf4z53r7A2gq6aPNJ2mRnmuk8lyzCD0JhGfeG3cOD3FZhZtNxK/odauwu+8oGU9sP4irNc5BbzOhxGfFVZF0FPv1suvzRTKeOL1Xdcm853KVlW6xVT8vkvHkIPQkXlP0uv/P5fgVf13FHqAuZIqAqlg1ufJZ0A88lZcUkljWH4F/OR4/xsqwkasgypwoWLr7tmOVfT3uzMVF3bhYArnsNfs0nM0vzEZtUUrGk2kynhyprJ4YqQxMl79GKm8IXCxFiPVcswg9CQDY1MpNf+z65sE1YEUyntybYP5A0pl+3g06lBj3lMCGzDXxRTKefNDz62oRdlY/pEWvexF6EthO5AHqQtJJMp4cmNd9DOfQra19FowCT2fVvQhQo+FsOX+k/Qkl+xvZrLtUeQMS2xPH2OQql+RNVVamRlnmv43hbJ7L7c3nMkw9H87mI5V9UxcOj7czUzkx9XjIGPv3xdTHCwA2EeO59DWnKjc7BKxZFkSYNlSnChtk5kWvm8dejYr3meDjSuVrK9f7q7Z8+Fz0upWsFmwi8+AwxgB1oXIlwijwPKwy79mTote9lPRFZSFYKFfJeHIW8PhY47ISNablMEvOK8PMB9GR6I+6qVxlo+Qn04etynxeaPdVVqbexFyZ6oNpoZAGnsY6qlABVErR66aKc/naa6oU+KJikvGkMO0JPijsNX2MBSnYw9qqrWnIqSjOvUuwJtIAtdBz5eko9GRcScaTRTKefFT5fl14Pvzye0yAGhmXIepvDsfelZfKMHPh9UHlxjkLH8esgVTSTVXDVA9VqK/pS/o+nM2bXPkc43I3qlABVE3Vwpq0itcLqBazgdmyRVEIx+YBB2pmJUwN2T6iauf9pvqiuFa5XkmqdXi6zrxfD+TvHu9eZRu8kafjYQsuQ9TU4di78F4ZlownI/NmI0zdXKrnMPW0Qj3PQgZ5iaS7JlakRlqFOqUKFUCVmM/afuh57IBqVDhniiNOFDBIDXRceJCMJ1cKV/Gc8DAqbqZ3bT/wNJaWfTnPmtoGwtMKhZHKAJWVzZFyvbFUTIJVhhGm7iRV+dTtqeh1L2IOU014mQeeRiLpJvAcQqAKFQD2F2MLpk3kZqMNwLmAQSoPC2rO9F88khRijwheX5Fa6Z8bg8tkPPlAsOd0hcJy+f5JU0PqqnAZov7pcOxtRVEZthKmhu6BUyU/dqaPOEyN5cMtb1I16nA2P1acVajT0JMAgC3F8jm2C5ajwhsTpPoOug5Z0l9/puL5o/wH9Tmvr/iYn8m30PNQWQD2wVRgwlhZoXBiaciFWL5fGS5D1Jh2W4+qMiyihuJVsgxT/y563ZtYPuxNaNkPPI1VeegJeBTjjXNU5xoAeE/R67p8IDWV+xU4/UgfsKK+Qqwsyz0fD4GYYGbq+bC0jIjPjcKvEJmqDFAbX336GhN6Hmm/vsa34vtcKc5C1EEnu1ccAWG0lWFrYeoo8HSqpK+yMjWGMDW26p009AR8CLiR11uiPdcAwBtcPpD6Kuna4fhL7DANb8wyS1vVR5uKccNeuPNRfoN6lvRHxPRBzQNP4yoZT45YVv6+ZDyZavcg9SwZTz7yfa4W1z1RPyrcboNL0VeGmTD1RNKBCFO30ddzmJr7PniEVahNElt4LZVhAQBUhuknmrsa3lRojByNv4oAAF6Zm2afq+5yj8dCYAGCelpGRMJ8Loe+zzlJxpOzwHOolJU+qZtmXwuV1adXziYFZ5yGqINOVijcboNSxSrDkvFkQZi6k76ku6LXvfN8ARD6A+4ltV8GEGkV6mLQyUahJwEAW3JZhTqSfoQBI4fHkaSUHaYRgM+QIaVtRbOYoH7k8ZC5x2PhdSE3Ci5EX86dbRGkTsXy/UpzXYmqQSdbDDrZB4XpH+RjCZl1a2HqpcJX81ZFLum7j516h7N5ovj6BxWKo4WGa/RCBYA9mYeOfYeHWL0G81GpTzUqvDI7qo88HtL59S2icyZ/94G0jAjMLOMP9T5fBqjTQMevhQ2C1EvaJFSf8xB1adDJRoNO5nNn+sWgk8W0udXWTJh6IcLUbSQqq1JTx8c5Vfhm3+uuTfV3bZkWCrGF11ShAqiivsOxb03AJOlHRZXriovcx0NUYI3Pgg1e3w3jqZJ/Kfd0HLzA3LuGWuW4DFCpjLRgJUhdtfweX/ifEWzzFqIuDTrZdNDJfOxMX5vKsGQ8KdbC1EXQCcUvkfTF1eCmCjXGasgm9FSJsYVCbc41ABrF9YZS63yETTF+NqPGzM3ywtfhPB0HcfEV1NMyIqxQy/gJUB0w389lX+N7SQdU+daH9xB1aS1MtV0xWsvKsGWYmownBwrTHqFKjh1eCMRYhTpqSBVqP/A01tXyXAOg3kz/UFefY4tkPHnpuu5W7lfU9AkBEICvlW8st24gU9Xv6zVGtXMARa97rHCVwASojpjesh+T8eQDy/frJViIumTC1I+yu5lS7SvDkvFkRJj6LusXAhFXodb+Na84q1B99PkDANtcnk9fPC+aGwgfQcCph2MAq/4IPQHUnq/XWO7pODDMgz9nKyjfcUKA6tYrD5VRccFD1CWzAZWNnekbVRm2FqZOA08nNrmDMY8VZxXqIvQkXIq0CrVQM1ooAKiRotfNJaUOD/HWedHHslQ2mIJXHpdoxnb9CX+mno7zH0/HwbNTuf1Mfs2lqZQEsKVoQtSltTB1l82UTt7/I/VjwlQfvWarZOFgzBirIZtQhRpj9W/tN/ICUEsuP8dGby1ZMxUvrqteUtOuAPBp6uEYLLVuKLOkf+HhUKmHY8AwVagh7nFGbHAE7C66EHXJhKkX2jxMLSSdDDrZ1PHUopaMJ1PC1B+s3qgNZ/O+4ru4aEIVaiKqUAFgb2b339zhITZpcUI1KupoEXoCqL2ph2OkHo6BZyH22biXdOb5mECtRBuiLg06WbEWpi7W/kihcvn/hyYt43/PSphqs9dslSwc9HiJsQq1CT05Y9zIiypUAFXk8nNsseGyZh8bTOVFr0vVHnz6b+gJoPZ8vMZSD8eAglWhFir7oHIPA+zhl9AT2JQJLC7MLw1n81zSPUHG28zyj5Oi171UefPUDzohf6wucY+0CnVa98rriDfyGoWeAABsw9ywHTs8xEafu8l4UhS97kjuN4D6rIa2eEIQ3I/AtaniLOjAbkIUiVyykRSwv+grUV8z6GRTAtTNJePJIhlPlr1mr1Tvi72Fg0bZMQZ5TeiFGmMVau1bKACoJZfn00JlhemmfCzp75vgGPCBYAK1QBW/e4GqUG+T8YRWZIAFlQ1RsRsTpp5p9427qsDqzZmpeo7tgqL2VagG4TUA2OGyT+jtNssDzSqZqbPZPHNd7QoAviw8HYeHT+75LhIpxMoMwBpC1IZKxpPC7MpXtzB12SPXphiXztQ+yDMtFGK7kKMKFUDlmN3qU4eH2OXhpY+e3mwwhTqh2rXBzMMn1IPvIpEz+qAC9hCiNtxamHqi6u8uem3zQ8JUoea2xrPkviFVqITXAGCHyxu26S491kzbHdc3dakJkIE6IAQBKs58JvksEpk6aHMHNBohKiT9CFNHyXhS5TC1UNnv1aYYgzwfveSCinQjL6pQAVRO0evmctuSZp+K0pGtSbyBalT4EFvbJwBx8l6F6vl4QO0RouIf1sLUKi0dakIV6mLQyUahJ+FBjOG1j6WnAGCbyxu2Ys8KFx8PBXM2SoEHPirL/vRwDACOmM8in59Ho11WigB42y/bfoEpQf9dZZXYocqNARYqAyzepDViboxGporlXPEFiutsV6HGWL1S++XkkVahNmUjLwA1UvS6qaRjh4fYKwRNxpNF0etO5f764rPYVANu/cfDMVjOD1SbzyrUQlShAk5sXIla9Lpp0et+l3Sj8oJ8+RQll9SX9L3ode9M4IYaScaTaTKeHEk6kp/ddHcxslyFmqp8XcekKVWovpe5bKL24TWAWnJ9Ph1ZGMNHNepx0evGtlEh6iX1cAyKVRrMY0U9Yb07Lh9qrrO6QhPAs41CVFPJ8F3vl5/nku4IU+tpLUwdBZ7OOtshV4zLyWsf5JkWCrEtu6QKFUDlmNCw7/AQtzZ2i07Gk1u578Pu+nsB5K4PkIwnU9fHQNS8PAhiZakbnjeUcrFPCABj00rUG233ps9Vhqnf2RW1fkyYeiLpQHGEqSMbN3JLkVahFpJuQ0/CA8JrALCjL7c3bDb7RPvoOR3jKgfUgKfCkamHYyBuaegJYC+/ezwWVaiAQ++GqObCIN9x/ENJN0Wv+0SYWj/JeLKIJExtQhXq9aCT1frDMOKNvKahJwEAO3AZGi5MBaktI4tjvSYtel2fSynRHD7CETaVQurhGFShOmBWhvj6/KEKFXBsk0pUG4FSqpUwlb5U9bISpv5bZaDpM+yzXYUa45K/pnwYxhheU4UKoHLMg+vU4SGs9jE1n+M+VltQjQoXfIQjTViNhLf95uEYtS7YCMjnA7xbqlABt35563/uWYX6klRla4AvRa97LemKN/nbTKi32iNyMehki0DTeZP5WV4Uve6VpFOVNyuuA3PbG1KcWh7PhiZUoR4qzirUUehJAMAOPjkef+RgzK9yf6OZF71uavPhK5rN3Culjg+zoE8l5GfPACqe3fC5lJ8CEMCx9ypRXVWGJWbsp6LXvaAy9Z+Gs/nhcDb/JulvSXcrv56Gs/ndcDbvh5zfW5LxpEjGkwuVy/wv5W7DiKnNi0oTWMdWpdKUKtTYvu8SFyEAKsjs4Jw7PMTIxQNwTxtMSXGuekB1+bh+oQq14cx53cf9MmG9G74qUac8JATcezVE9XARLv0cpn4pet3U8fEqwQSkd3r9hJtLuhnO5k9VCFOT8eRA0ons3xzZDrlO5W/XxE2NGlCFmiq+FgpUoQKoKtehjstNoHxsMHXMw3vYYO6VfIQjtlddoXpyT8chRLXMcy9uH5+hQOO9VYnqszIsURlgPRW97k2Tw1SzrPlGm4V5qSoQpkpSMp6MLIep02Q8mVoYR1K0VahSMy6c89ATeEETvu8AasZcP/UdHuLe5mfvC3ysvIix9zmq6YuHY1BZBsnPPcqC15oTPnrZSlKRjCcjT8cCGu3FENXDRfhb+mp2mLrLBVmq5zD1wgSCUVoJUz9Kmu4xVFOqUBehJ+FBGnoCawr52SkaAGzrOx7f6QMm0yZg5PIYRowPTVEhRa97Kj8PgWkt1HCe+u5K+92X4XW+KlFp+wF48lolagz9ovoqw9Q78+FRe8PZPNd+F2SpTHuECoSpt8l4ciTpSNt/aF85qIRxvQnHLrhwDqP2G3kBqB+zRN1lOFjIz02aj+WIqecllqgRs4zfx72S1VVXqCxfD33+8HScxjAFYamnw7GUH/DkHyFq4CrUl+SS7hoSptq6IPvRa9aEqamlca1LxpPplmHqVTKenNmcg2mFkNoc04KmVKFKfjYS2VRTNvICUD/Hcrui4tbFhlLrTGi0cH0cUY2KHZiHFXfys3qJh+kNZ+59fTzwKczmfrAr93ScBQ9cAH9eqkSNoQr1Jbmew9TaVQ9YqEJ9yWqYelORMPVA5VK+1Ru15fK+I9sBqhHja75JF84xXbRRhQqgqlx/lvn8XPLRlzpvaNso7MhzgDoiFIH83aPEdC1eJ796Os7U03EASPpl9V/MxUE/zFQ2lqu88F1IuqxRA2XXH5J9Sf3hbD6SdBlrlaNpaH5ifjkXaRXqNNafjwuDTlaY12U/8FSoQgVQSebhcurwEL43txnJz6Y95/J0vYFqM0v4v8nPNWMhyUXRACrEY99diaX8ruSejsPPD/BovRL1NMgsdpNKuil63aei1+0HnstehrP5ofydZPsqK1O/meM2HVWocTiTdB94DrdUoQKoKNdL0732WvO4wdSxKSAAXmUeUtzJ30P3Ex+tMxAvE9r7eJAklUvBqUR1w8u9Nj8/wK8fIaqHDQlcSfUcpl5U9GI4xPf9WNL34WxepeDcquFs7rpyZxfTQSebhp6Ebya8PFLYILWJ4TWAijNL0nOXhwi06sdHcFuFFVgIpOh1k6LX/aayAtXX/cUVgUizmXP6ncdDsiGRAx73cpl6Og4AY7US9VT+LhBcSGX6f1YpTDV9SvsBp/DFLGlvohgfGjQ2yBt0smLQyT6oXFq58Hz4Jm3kBaBeXK+o8NGf9B9MP0gfD9ZivBZAQCY8vZD0JD+b+izdO+r9j4ow968+Q3taWbnja8Xnn56OA8D4l1TpKtSX/NhMqSJhagzLyaPedMoFRxt57auRVajrBp1sNOhkB/IbpjY2vAZQXZ562Y8cj/8WHwFuWscNS7G9otdNV8LTc/ktLrlXuSIHDWWW8D/JX/gmSde0jnCGTaWAmlpuLNVXtatQX7IMU8+LXnekchOqRdAZrYmgCnXVZzWriX0M4fU66zeL5gb7VNIn/dy64F5lE/KrWC+eBp1sJGlk2i58lrvQmypUAFXluiXPbeBrp1uVfQFdX6N+FrtTN5K5TjqW9Lv8Vp3+NA3RB7XRzP4ePs51Px1WVKG6lPo4iFm1AcCjZYhalyrU1/Ql9SMMU2MK8vLQE/Al0irUxaCTWb2B+//t3T123Ma29vHnejm/OCM4YNidHHIEBlMkbgWI3Uw7ETkCUiMQmTBlK0YgOkGq9gjMk5Ch8I7AuDN4g6q2Wm1K4gewqwr4/9byuvf4+HSVxSY+ntq1y69of9LjD2SH/q+3XVVeKe4w9VbSrf+5nav/n12QraoA0INRHSi1L6ubrqvKWw2/4Fx0VZlH9HyIgfh+k9tnoF9lW/X3mE7ScVY3oQ/XRAD++/heYQJ8qlCHVRiMsTEYA8Cen/3KVx54HlaW+hKmfgi5cnN9/7Bd+Y5F6IdISzGF11u9bif/QYC6a1uxvQ1T17G+RPpWB5uew9TNaj7jxQVAcvzz25BVS7Gc2Hwlm10753JtZPAy/zY8SOUpMn15tv3Pzn+OaefdnVwFKs8hE7OzU+ytwnwnW1GFOhgfjlvg2gEE8LPcNt+pWcqFqRu5ytRNgDmkfpBXknwLhSLwNPa1fut6n270vO9X9O0vtnbC1FxuzstXfBy9UAGkaugq1Ciq9LO6ueuq8k7DL/Yuuqo8ozLrxZaKp0VVCu7kKlD5vk2ID9eWCheebnGtG1ZuNM5/jcYBsOMnxRcoWSokfeqq8pPl6rmvQo2thcJUVrKmUIW61OteNpdyB7PdGK6kPttqPmtX89mJpAO97OCTSw7yApAi/8wydKi4Hvjzn8Mi0LU4pAuQ3K6fI0KsaeiqMuuqctlV5UeFObRs320kuwzGLDcapzUaB8COn0JPIBKFXJj63mi8GKtQN6EnMLTIDvLaGqIKta+AfqkvYWrR02f2bi9MvZTrL/Yj69V8NqWD1ACMy9ALsevIAp5bPe3a/lqxLXBjXDpJb7K6oW3EiPnQdNFV5UVXlX9K+ktuh1gMbdw60bbEQm4xCIdKAWH8/ON/ZFJOu6r8f1ndDNYjJtIqVCmSbXsDi7EKtddDOwaqTloqfPuLH1rNZ62ks+v7h3f6dp+pVtK7AYJrADDhdwgM/TIe1TOBP2BqLXdtH1LeVeWCKi0MYCPX/7QNPA/0wPc03T5vF/7//iIXnuX2M3qyN5EtkI3Vvw3GaA3GAPCIn+Vu6kXYaUTlvKvK2wEfcpaKrwp17QOo0Yq0CrVT/03dhwyKC7kTjDeKO0ztJF1Iuri+f9g9RKId+/cck/ZbV5W/hJ5Ews4SOtxl6AXBu0j/LK40fIgquQU4QlT0pZW7vvCdeoGuKj+FnoOXK+5w9CmifXYfodxgjNZgDACP+FmuEq4IPI+YZHIVHkNVo8ZYhTqFw3Vi/HO/8oFfL3wVatHX531HIRemtnIPZGuDMV9kNZ/FGAQAQ8iV/gteSLEtbj7KVz9Nqgp1K6ub1i/iFQMPVXRVmVMxiFfq5H6XLqn8e5Ui9ARGYp3VzUXoSaBXvOMAgfzkAxB+Cb/26xAfen3/sFR8L7lTqEKN8bCI1KpQH5NLuumq8rM/zAoAMKyhe6p3irsKs9cWON8RY/sfpKGTK044yOrmggAVEbiTxDkAtgqDMf7PYAwAj9geLPVGlITvygf63BgfyqOsOOlZjAd59V2Feqhwq/W5voSpp75SCgDQv98G/vzYDpT6il/4t5jfgnsZnqkV4SnicyfpmO/jKLWhJwBM1U+S2yIl6UjSOuRkItL7jSbSKtTN2Lc7R3yQ17rnz4vh3zGX9F7SZ38iKS+gANATX/GfDzxMCgura4MxYtzBgjjdyh0YRXiK2BCgjlsbegLAVG0rUZXVTZfVzYmkAxGmDnGzibEKdQq9UGOsQu21hYI/qXnZ1+f1IJP7vhOmAkB/hq5C3STSB9Qq6I1hcRLxWstVnb6JuTc8JosANRD/XgZgxH7a/xtZ3bSEqf323Lq+fygUZxXqJvQkhhRxFWrf4XWMAb30dZh6w0MFALyM0cGBVv1GX8UHvRuDofKuKoc+xAvpWso93/zVVeWnrirfd1W55FkHESBADSs3GoefLxDIP0LUrb0w9VLT+UUd4lCFGEOuKVShLkQVagy22yIJUwHgZYauQm0Tq6ajGhWxyOQWOE4l3cg962yfdwjhYW2d1c0RAer4ZXUz6pZ8QMy+GaJu+TD1TC5Mfafxh6lXfd54fBVq0dfn9eRu7FWo3hTC6xj/Hb9nqS9h6mHoyQBA7IwWy5KoQt3K6uZWNv3gChb+8AK53O/sR1+p+p7vEQyc+QIoAMCAfhiibvmeqRcad5jayVXd9inGkCuFgyNeJdKDvPquQs3kqm1TtJT0p98CVwSeCwDEzKIacm0wRt+sgt8Yn+OQjkyuSnW7gFwEng/Gp5V0lNVN3++wAIBHPDlE3doLU080rpPhplCF2q7ms3XoSRiI8aWn7xe+GA/Neq5C0ifCVAD4J79Ythx4mNtEDpTatzYaZ8EBiejJUu6Zh9ZG6MulXIDK1m4AMPLsEHXLh6nrrG7GEqYOUYU6dA+zlxh9L9RIq1B7PcjLv9CNqVdboS9h6jLwXAAgFha9vZPcneKD37572D86lOLvPY60LOUqUy8CzwPp2h4edUb/UwCw9eIQdddemJrqSthtz1WoueJ76J5KFWqM4WLf4fUYqlAfU0i68YcyLAPPBQBCG3pXRZvVzWbgMYZktaU/xucKpO+8q8o/6RGPZ2glnfjDozaB5wIAk9RLiLrlw9QjSceSNn1+toEpHPgzhSrUQlJsD6NUoT5fLsJUABPmT/bOBx4mySrULcMDpnJOWsdADuV6xJ+Gngii1sq9xx1ldbMOOxUAmLZeQ9StrG42Wd0cK50wdd1nP7BIq1C7iVShTiG8XmqcVaiPyeXC1L+6qrygLx2ACeFAqaehGhVj8L6ryo8852DPnVzl6UFWNxds3QeA8AYJUbd2wtQjxf2gPoUq1KSrTZ4i4oO8Nj1/5q89f14KMrnfq8+EqQDGzm/vLQYeZj2SF/K10TgFhwFhYAu5/vA840zb9pyOI79tfx14PgCAHT9bDOJPDDzpqvKdXBCytBj3iSZRhar+D82KUYzh9RAtFGJrV2BpG6a+7aryStLlSEIAANhlUfU4isXVrG7arirXsnn2Opfr/49/2kj6I/QkvP/V489KhfE8XuJQLkg94cT1SbmT+x36nV6nABA3kxB1y4eVsYWpfb9ELHv+vD5creazUQdN1/cPFlU7zzXUQV5UKHwJU3/tqvKYIBXAWPhqx+XAw9yNLKD5IJvnr0VXlZyG/bg/srq5CD2Jp/CV3pncc+O/5YLLmBaot0Hq8ch+T+F0cqHpndzCw12fBT0IzuT+0FXlIdcHIAzTEHVrJ0w9kztl/K3CBEObPi8+1/cPMR74M5Uq1Nj+3KXhDvK6U1wP+yEdSvok1zIEAMZgaTDGKKpQt7K62XRV2Wr4g7gyuZ/PFJ6rRmvn2X+z/Xt+C30h6Re5bfW59bz2ZJI+dlV5RGg/Cp2kN3KBKT/PEcvq5q6rSpOhLAYB8E+D9kT9kaxuOr9qfSAXOFnfVPoOuU4V3wVtPYEq1FzxVQAPVYUquRAVXxx2VbkMPQkA6MnQi4KdpNuBxwjBKhiOcdEWr+TfSW6zujnL6uZAbnH2Uu5U9FBy0SN1LDJJBQEqAKQvaIi6tRemnsnmgWXTZ8+ZSKtQpZFVm3zDVHqhblmdRJySGH/3AOBZ/ILQ0IHJWA6U2rc2GifvqnJhNBYCyermbidQPdFO1aqxQ0k3gcZGv95yON1kWNxj2ZU2M2gQAAAd5klEQVQIBBJkO/+3+If6S0mX/kXiXMNtp5lKFWobehJDirQKddAqH79t8VLuOweHBwkAY2CxKDjKxdWsbjrDA6beapzVvHiEPx193VVlIRdo5sZTWHRVeZFKz9k+ZXXzPxbjdFX5Ua6Nw5AySe/ltvVj3O40/FkdseUOwGREFaLu2nlgWar/MLXXKlTvt54/rw9DVkPGIsYKxMEP8srq5sxv71oOOQ6AZGwUz8nYKWpDT8AHNPnAw2xGfoCJ1QFTRVeV+cj/LLHHvzscdFV5KvduYhlinHdVOcT7C5wzDR+iSi4QX2R1wyIMXus/oScATFW0IerWTpi6kAvMih4+ttft0Nf3D0uFb0C/b/RVqF5sW+rMDvLK6uakq8o/NGzFNoA0JHMyNr7Jogp11O1gDA+YktzP68RgHEQmq5vLripvJX2U7U6YGw6aGkZWN21Xle9kcx1+7wNxfo7j9YeoRAVGK4qeqE/hm70fSzrW6/oStT6Y7dPUenLGJA89gT2DV6HuyupmvdOvq7UaN0I8iAJIlu+TVww8zBDPPzGyev5ZcODPdGV102Z1cyS7XrySe+aN8Z1jLC5l8zyZi5/j2Fl8jwqDMQA8IpkQdSurm81OmPqSrRC99qGJtAp1M5Eq1NiYVaHuI0ylNx2ApFGF2p9b2bzA0lIHyurmRLYVyae+9Qd65itDz4yGO+2qkn7+43VnMQgHlQFhJBeibvkw9Y2kAz1tFbiT9Carm74vajGuJE6lClWKqwLx1rIK9TE7YeprK7ZTM6XvPIAR8dWMFq1p1gZjBOeDEKuFtRj7ssOYr/C2DFJjfPcYBf+z3BgNd2M0Duy1RuPkRuMA2JFsiLrlt9Oc6EuYuh9idf7vH/XdxDviKtRN6EkYiqkCMZogb69iexN4OkNbc7gHgISdavjeZlO7Tl4ZjZP7nv2YOB++WVUxFv7gXQzD6nn+0B9ShpHx91u29AMjlXyIurUNU7O6+ZekI7nw6Cirm3/5v98OMOxvA3zma0UT5BmJZXtilAd59dD+IgVT+84DGBeLZ4lY7pUm/K4jk+2UohoVXlY3l7Kr+KYadSBZ3Wxk+HNkS/ZoWdyD/mMwBoA9owlRd2V1c+fDo8EuXtf3D4XiW/2ZWhWq/L9vkD6ke6IO8l7Q/iIVtxOrrgIwIr6aLB94mNaHAlNjVY1aEIJgx5lswpOcatRBvZNdb+X3BuPAnsV1oDAYA8CeUYaoRmJcAbZ6YYjKaj47U9hgMMoq1Mc80v4idZP8zgMYDYsqxqleJ60OmJLifCZEAL4nr1V/1Bh3xI2CX6C3unYuaAsySv81GCNjEQ+wR4j6ApFWobar+Wys27V/aDWfnUh6ozAn00ddhfqYvTDVarW9b5uJVlcBGAF/wvbQpzNv+8JPjvEBUwt/QBiwbSdhsUuq4IT3QV3K7r3iPdeQ0dkYjVMYjQPAI0R9mRhXfpML8vq2ms9uV/PZgVyYujEadpNKFepjfJh6oTTD1Ml/5wEkzaIK9daHiVNldZ/IJFFJhl1Wz1T05B2Iv3ZaHRaWyx0yiJHw1cytwVC/GowBYMfPoSeQqNhWfdvVfLbu+0P99oC3citc23/njaTf5U76jfLFzFfk3vqK4XMNu0I3iiDP/ywvuqq8lHuIe6vhT4t+DapQASTL318tQrf/+orXKWs1fN9ZyT1vrA3GQQKyuum6qrzS8K0eFrJrHzA5Wd3cdlW5kU2133lXlbdDnukBc3ca/v5TDPz5APYQor5MbCFq70FeV5UXevzBr/B/nfuHw3WsB/v4Q6c2Pkx9q/5fWEd3kNc2TJULVJdy34E84JS+Zao9/gCMg1X1GAeW2Mm7qixY4MOOtYYPUbOuKhdZ3Uy2pZeBM0l/Go31XtKx0VgY3u8afsE066rykPAdsMN2/pdpQ09gR+9VqF1VvtePH/oy/8987qryJuam1qv5bLOaz4Y4mX4UVajfktXNOqubA7kKhzbwdHa1vCwASJXve7cMPQ8Mgq3V+JsvMrB4XmE774B8OLU2Gq7oqpJt/eOxMRonxlaDwGgRor5MTCs9H/r8ML/t77k376XSCFNbfwBVH2Hq6KpQv2UvTN0Eno408vAawOgtFXe7FLzcIubnIATxu8EYhcEYU3cmu3MDzjlkahwM+6LSkxswRIj6MhYPRE/Rqf/TP1+z7WgpF6Z+jLkH216YeqmXPRRNLsjzYeqx3DajTaBptFndrAONDQB9oFpx3Pj5YpdFJWreVWVsrcZGxbe7smollUm6MRoLw+MaAIwMIeoL+O3zMVSjXq3ms95WRX3wWfTwUQtJn7qq/JRAmHqm559MfzKVKtTHZHWzCRimTi68BjAevtd0HngaGNaSKjJs+fBtYzAUAcrAsrq5kF17q0XM71B4lj+MxmEBDzBCiPpyJ7Lb1vGY2KpQH1MojTC1W81nF/pxmLqRdNx3D9pU7YSpR7LpFUUVKoDU0bds/DKxtRJfswhRfjEYA+79z8oNCzLp8+c4WGQG3HcAI4SoL7Saz+7kKvFCVaT2XYV6qOF6KhVyYepnX4UTpW2YuprP/iX3s33n/zqTdLSaz46nXIH6LVnd3GV101ev2e/ptf8vAFga+D6LuAx9IjvSYvGuQCWqgaxuNrLbhZXr+edUIE4WW/qzmN+zgTEhRH2F1Xx2t5rPjhTmwJ2+q1AttgDkcquqUYepkrSazzY+UL1YzWeXPjTHd2R10+6FqX2uug5ReQ0AlthqNx15zDtwYI4QdVwsq1HP6XU5ClbnqbDbBTBAiNqD1Xy2Xs1nlj0i1z1XoeZyh0JZyfUlTD1lq8q47IWpz+k1+z1Xvq8YACQnwH0W4RGaQ9LfJ3QPzl9nMDD/87Rc2H9vOBYGYLilv2ABDxgeIWqPfPWiRZja9+E6obad5XIPBp+7qrwgTB2XrG4634T/tWEqVagAUrcMPQGYWxBqYUdrMEZuMAacvooEnqLoqpJt/elbG41DNSowMELUAeyEqUMcuLNezWdtXx8WSXVMJhfkEqaO0F6YeqLnv0icUIUKIFX+nkZV4jTxc8dWazAGz89G/HNp30Ut33PO+1HyrM52WLKABwyLEHVAvmdq3wfujKUK9TG7YeoNN4Bx8WHqOqubp4apnVyAatGMHQCGshDhxlQtCT5giN6ZhrK6uZTdAcOZ2NaftKxu7mT3fYnp/R4YHUJUA6v5rN0LU19aVdd3FWqm8FWoj9nOizB1pPbC1M3ef93K/Z4cZXWzNp0YAPSPl5npyuRCdADjdGY41pJ+l8m7MhqHalRgQD+HnsCU+AD05Pr+4UzSqdw2r6dWKLTq/0adQn+dpdyNYC13uJDVCh4M+JB0HXgaADCIrioXok/h1J2L+xwwSlndbLqqvJXdYsmNXFEOEpTVzbqryvey2Z3yXtIbg3GAyaESNYDVfNat5rMLPf3AnTtJR6v5rLe+kAn2aFtK+rOryk+swgIAEpHSfRbDyHluAUbNsho176rywnA89M+qGnXBvQcYBiFqQHth6pn+2SdlI+lkNZ/1GqB6p0qzR1sh6RNhKgAgZn4rXRF4GogDYTowUlndtLI/ZCo3HA/9WhuORR9dYABs54+AD0gv/V+DS7AK9TGFpKKryo2kD/TOBABEhl6o2Fp0VZn7sAXA+FzqeW3aXutG0rHRWOhRVjetb1O3NBjusKvKU38IGoCeUIk6TUulWYX6mELSTVeVn7uqXAaeCwAAMR/ciHBSX7zG6xShJ4DhZHXTyXZbf8F7T9KoXAYSRog6TWN8kM9FmAoAiEMKBzfC1tKH65gYfu7T4HfFbQyHfM93K01+V8LaajixrR/oFSHqxPiAMQ88jSHlcmHqX11VXvBwAQAIYIyLlXidTHYneCMuh0bj9H1+Ap7PssKQcCxtlt+VRVeVLO4CPaEn6vRMpUdbJvfv+raryitJl36rDXZc3z9kchVTv+rrh/xbSR9W89ltkIkBQKL8YqXFAl7r/8LrHcrmZ3Yu20NFEAerEHX/gFoYy+pmY9jvUnIV7h+yutkYjYeeGPdGldy2/k1WN1wngFciRJ2QrioPNe4q1MfshqlrSVcc7OBc3z8Ukj7q8RfHhaTF9f1DK+ndaj5b280MAJJmVYV6ltUNC1096KryRjYvsnlXlQWBx+T8EnoCMPVO7jna8pCpA6Ox0K93sgtRM7ndmscUFgGvw3b+aSlCTyCgbcXl564qb6beYPv6/uFQ0if9+AEvl3Rzff/w+fr+YTn0vAAgZV1VFrKpOmsJUHt1ZTgWrR6mp7AYhHA+Dr5Yw/KakndVeWE4HnrivyuW2/oPRQuIYLqqXHRVSVufESBEnRb6gzpLEaZ+fOY/n+tLmHrh2wAAAL5mFZB9MBpnEvz2RqstjosJP3tMjn9htmrvgXhcyvZn8pbrSrIuZdvPeMkhzPb8OS03kj52VUmQnThC1GmhdP9rS7kw9aOvHpoEX1Gav/B/nsu1RyBMBYAd/gXWqsJgbTTOlFCNiiH8ZjROazQOnsBvlz6zHFIuoEFiAnxXJLetn4pIW7s7QE+7qvyThY90EaJOyyb0BCK1kPSpq8pPEwlT+zhcbNtrljAVAByrgxtv6e09iFvZLTYvfVUKRsx4YeUPo3HwRL7lysZwyIJgLE1Z3axl/55+489LwcB83/X9P+tDSX/yO5smQtQJ8dvVNqHnEbFCX8LUUV7QXlmF+phtmPrX9f3DzfX9Q5+fDQBJ8IGY1X2DrfwD8NVAVn1mLb8vCMdqYUXi+T5WISoMWaBJk/V3JZN77yVIHZBvnbD8xn+die39SSJEnR7L5tWpKuQuaJ9H2DNmyAf6pVxlKmEqgKk5lVHfQw6UGpTlln7LgA3GfBXq0mo8DpWKky9gWVsOKa4tSfLfFev3dILUAfmirKe02WB7f2IIUSfGP2SdhJ5HInK5Fd1RhKkDVKF+y1JfwtTCYDwACM2q7yFVqAMy3rGTT6SF0FRZ9qfcGI6F5zuT7bkUp1xbkmV9IJlEkDoI/+f5nPsA2/sTQog6Qb7vyrFoQv9Uub6EqacJb5OxesnfWkr6dH3/8JGeqQDGyi+y5UbDrY3GmTLLoJoDpkaoq8pTuV1NVn43HAvP5FuFWFa5SxLbgxPkvyship0IUnvk/xx3D5J6Krb3J4IQdaKyutlkdXMgd6FuA08nFbncQ8nnriovUgpTfUVoEWj4hVyYmsyfFwA8g9UCFQdKGfALzVZVYwu2742Lf3m23k5Ni4/IZXVzIdv3rcOuKi8Mx0NP/K7REO33tkFqEWDs0XhFgLqL7f2RI0SduKxu1j5MPRbbgZ7q75PpEwpTQ/dHCvFSAQCD8i8bhdFwbOW3szYci2rUkfDPg699eX6uDYsrybCuMHxLCJMmH7rfhRhaLkhdBhg7eT0FqFts748YISok/V2ZeizC1Of4+2T6ripvYn1QCVyFuuuUA6cAjIxVFSoHStmy3Hq7TGQxFt8RKECVWFxJhq8w3FgOKdvevOjXG9n20t1101Ul351n8MFz3/cAtvdHihAVX9kLU9eBp5OSpVxlaoxhakwVoKymARgF49O3CUoM+cq+jdVw4t6YNH8t+CRXOWQ6tG8/gXRYV6MWVLKlyd+HQh4GvWRL+dP4Ptg3Gm4Rbbu9nwXXSBCi4lE+TD2RdCDC1OdY6kuYGrw5t6/8LAJPY9d/Qk8AAHpiuQ17bTgWHMvgOqbFTjyDf9b7U/YBqmR/WBFeyQdjl8bDvid8SZPfgWL9fdm13VJ+GnAO0eqqMvMVuxaVoodyGUNhMBZ+gBAV35XVTUuY+iJLuZtO6Abdsb2Y5aEnAACv5V9Il0bDcaBUAMYHTOW8GKXHH9zzp+y38EvuuxkyXMHLvZPtNu1c8b0P4ImyujlT2FZ7mVwQ/5Gq1C92+p8uDYfd9qy9MBwTjyBExZPshanWN/+UFXIXO/Mw1VehLi3HfIIQTdIBoG8L2QUnbOUPZ204FgdMJaKrysOuKv9U2GDqKqsbnsUT5H9u1qevn8awQw4v9kbh36EWoipV0lcLaKF+p859tkCFeSCEqHgWH6ZeiDD1uQp9CVOtLngxrjr/N/QEAKAHVtdXDpQKy3K79IIqn7h1VZn7rZshX54lqRVVqEnL6uZS9qEYBwUlygfvJwr/3r2tSp3ktvJIFtC2CrlKWARAiIoXyeqm2wtT26ATSkchF6YOGqRGWoXaSSIMAJA0f0hHbjQcVagB+TYKlvctqlEjtBOeflYcz1ZnVKGOwpnxeIdUEaYrq5s7uYOfY5Ar0E7LEHzv0/cKv4C2L+TBY5NGiIpX2YapWd0cyP0it4GnlIJDDb+CFcMK2b6r1XzGQz+A1HGg1LRYBtlLtufFwb80L7uq/KR4wlNJ2lCdPg5Z3WxkX1xwTsV7unyQGlNwVmjEYaq/D1zI3QNiW4A48d8HBECIit5kdbMmTH2y06EeYq7vHzK5vjUx4QAEAMnzPeUKo+E4UCoCPrBqrYZTfPfvyfAVp8uuKj9K+ktu+3MRdlZf2W7pxXhYV6NmsjlJHAPxhx7Gdh0o5MLUP7uqXAaey6vthafnCnN44Pes/fcAgRCiond7Yeom8HRiVgz0uaeK72JPFSqAMbCsQmUrfzwsfxYx7iQZHf+SXHRVedpV5U1XlZ/lXphvFG+QfcLCyrj4n6f1IVML35YGiYo0SJXcbsubrir/8tfVmLa+/5Dvebpt3RJjeCq5BfYYf/aT8nPoCWC8/AV+7cv7zxXXan4M8r4/0FehxthTjSpUAEnz26yXRsNxoFRc1rILN/OuKgu/1Tcl/45wO2emr/vX/Wfn78X4cvw9l1wTRutS7tnd8jv5vqvKDb1105XVzbqrSinOA8O2z0vLripbubYVH2Lcfu53hi4k/aa4+p0+JrZ2DpNFiIrB+ReBDWGqiRirUNdUoQIYAct+WFShRiSrm7arylvZVSi+VXo7eZaKp2/o2NxldWO97RtGsrrpuqo8k20Ylsu9k/G9SljkQepWLvf8dNpVZSd3b/td7roWJFT1mUQh6VfFH5xu3Uk6ZuEjDoSoMLMTpuZyN+5lyPmMTcRVqNbblABgCBwoNW0fZBeiLrqqzNm6DfkX59CTwLB8GPabbAtNTruqjLI6EE+XSJC6te37vZAkH6reSfpDrvd42/cuDN9SIJcLS39RmsVcBKiRIUSFOf9ScNJV5TtNO0zte1vWQnFWobahJwEAr+EPSrC6vnKgVISyurn12xJzoyHfiiqxqevEi/OUvJN9wPNehPTJSyxI3ZXJfeeL7d/w/x7bcFX+//7f3v/uzv8z+y1bpC9tW3LZ3a+HRIAaIUJUBPNImBpjCDiUdoCV3xgPo6AKFcAYWF5f2cofryvZnWy97KryHS9Ok0WAOjFZ3Wy6qlzLtrik6KryNKsbzi5InA9SW0kflf779DZcldKsHO0LAWqkfgo9ASCrm9afMncgF7pN4ULRa7h4ff+wVHyrbVShAkie752VGw3HgVJxWxuOtd32iOlp5V6c2WY9PSHeg879wYlInN8Kfyx3DUHa1lndHBGgxokQFdHI6qbL6uZC4w9T26xu1j1/ZoxVqFehJwAAPaAKFZLcc4psg9QY7+0Y1p2kIwLUafK79KyfnzOltw0c3+CvHUf6sh0e6bn0BWaIFCEqorMXpp5ofKtpU6hC3azmM27eAJLmD0IsDIdcG46Fl7EMunNfCY1puBVbNyFdyv7dZ8G1Zjz8u/SR3HcJ6egknWR1Qz/0yBGiIlr+BrDO6mZMYepUqlDphQpgDCyvrxwolQC/XbI1HPKt4VgI511WN28IUOG/AyFClBu29Y+LD+NONN7dnWPSyi2irQPPA09AiIokjChM7XWLzvX9Q6E4q1A3oScBAK/hXyYte1KylT8dltttF74iGuPUyr04XwSeByLie2NvjIfNJZ0aj4mB+VCO7f1xuxVtXJJCiIqk7ISpx7J/uHitIXqpUYUKAMM4ld0JtxwolZa18XhUo47T9sV5E3oiiFKIatTzrioPA4yLAflDnI/EO1qMztiFkB5CVCQpq5tNVjfHSitMverzAumrUIu+Pq8nd1ShAhiJ3wzHogo1IQEOmFqyzXZUWrnqU16c8U2+Km0dYOj3AcaEAV/xfqy0d3WOxfYQQfrWJogQFUnbC1PXgafzPZ36b+4dYxWq9YmiANC7riqXsm2VsjYcC/2wDL6tW0tgGJ1c79MDqk/xRGey72dZdFXJtv6R8u/OB6IqNaR3Wd2wfT9hhKgYBX9DOJF0oDhfRqdQhdqu5rN16EkAQA8st09zoFSCfAhm+QLElv60rSUd0PsUz+HfHUIUKJxT/T5u/lp0pHR2dI7BRtwHRoEQFaPie77EFqYOUYVquc30qVjRBJC8rioLSZY94djKny7LcOPQfzeRjm3bh4Osbk7Yuo+X8IFLaz2s2NY/elnd3Pkdnakf3By7VtJJVjfHLJqPAyEqRmkvTH0n+60wu257rkLNJS37+ryeUIUKYCwsF6k4UCptt7J9vohxARX/1Mo9e27D0zbsdDACJwHGXLJwMw07BzeHfmcem07uz/Qoq5t14LmgR4SoGDUfpl4obJjad4VmjL1QqUIFkLyuKnPZLlJRhZowv0BqGYIv/XcUcbqV9Mb3PL2g8hR98e1DNgGGvgkwJgKJ4J15TLYLadwLRogQFZOQ1U23d2NojYZe91mBEGkVakcVKoCRsO47uTYeD/2z7le4NB4P33crVyX4r6xu3lBZjgGFqEbNu6q8CDAuAnnknZkA8Om2laeEpyNHiIpJ2d4Y/JYFi/4vU6hCDdHwHgB65Q/RWBoOyYFSI+BP1+WAqelo5RY/3uhLcLrmZRlD8/eLvs9YeIpzKuCnZy9MpWfq97X6Ojxtw04HQ/s59ASAUHxvknVXlUu5cDLveYhJVKEqzAMdAPRtKXeYhhW28o/Hley2vWZdVS7pr2ZmIxeS/1fShpdjBPZO9vcqyV3fjo3HRAT8AtFa7p25kFvIW4ScU0Q2kj5wP54eQlRM3k6YupC7MRQ9fXTfFZrLnj+vD1er+YzqCwBjYFnhx4FS43Ird5K1VbDxVrSC6FMnF5R2cmHpndzvqGWFMfBDWd10XVW+k7veWCpYvMG2N6+vTF7IHXZ4GHJOAbRy9/wrFtWmixAV8PwL7a1fZTvX68LUTZ8P39f3D5ni28JHFSrwdK2GPYBtM+Bnj55/IbCsDCWcGREfbJzI8GWyq8rsmVvIW3EIpPQlLJVcUNoGnMsYfJD0R+hJTElWN5e+/cyYca2K2E5ricuuKg/lwtRC4w1UW7ng9AOLa5Ck/wk9ASBWrwhTO0nHPYeoF4qvH+rlaj47Cz0JAAAAAEA4OxWqvyj9Lf93kn6X619PcIqvEKICP+BvCOd6+nb6kz63u/gq1M+y73/0Iwer+awNPQkAAAAAQDx8QVIhF6oeKr532V0bueD0D7kdpbSrwzcRogJP9IQw9U4uQO11tSrSKtT1aj47CT0JAAAAAEDc/Lv0of/rF7lDnXPraci9s28PDGx9r1fgyQhRgWfyN4BCX1/0Byv1v75/+Cz7G8yPUIUKAAAAAHgx31c109fVqr/s/WPFDz5mt9/19j//n///N9LfB2MBr0aICkTs+v5hKekm9Dz2UIUKAAAAAAAm5afQEwDwXbFt45c4MRMAAAAAAEwMISoQKV+Fmgeexr4N2/gBAAAAAMDUEKIC8XobegKPoAoVAAAAAABMDj1RgQhd3z9kkv4KPY89m9V8dhx6EgAAAAAAANaoRAXidBh6Ao+gChUAAAAAAEwSISqAp9is5rNN6EkAAAAAAACEQIgKxOku9AT2XIWeAAAAAAAAQCj0RAUidX3/8Kfi2Nbfruazg9CTAAAAAAAACIVKVCBesVR/0gsVAAAAAABMGpWoQMSu7x8+SloEnAJVqAAAAAAAYPKoRAXidiJpHXB8qlABAAAAAMDkUYkKJOD6/mEh6Vy2PVKpQgUAAAAAABCVqEASVvPZ7Wo+O5J0LGljNOwHo3EAAAAAAACiRiUqkKDr+4dCrjK1GGiITtLBaj7rBvp8AAAAAACAZBCiAgm7vn84lPRW0rLnj363ms8uev5MAAAAAACAJBGiAiNwff+Qy1WmLnv4OKpQAQAAAAAAdhCiAiPSU5hKFSoAAAAAAMAOQlRghK7vHzJJp3Jb/bNn/E9bSUdUoQIAAAAAAHxBiAqM2DPD1FbSm9V8djf0vAAAAAAAAFLy/wHtPOAh9j7S6gAAAABJRU5ErkJggg==;" parent="1" vertex="1">
          <mxGeometry x="780" y="399.39" width="81" height="22.61" as="geometry" />
        </mxCell>
        <mxCell id="gUQ9yx4PIjHJ4dBJeEt3-5" value="elections informations smart contract" style="text;html=1;strokeColor=none;fillColor=none;align=center;verticalAlign=middle;whiteSpace=wrap;rounded=0;" parent="1" vertex="1">
          <mxGeometry x="631.63" y="441.25" width="126" height="20" as="geometry" />
        </mxCell>
        <mxCell id="gUQ9yx4PIjHJ4dBJeEt3-6" value="SV" style="rounded=0;whiteSpace=wrap;html=1;fontColor=#FFFFFF;strokeColor=#B20000;strokeWidth=1.5;fillColor=#FF0000;gradientColor=none;" parent="1" vertex="1">
          <mxGeometry x="326.56" y="441.25" width="30" height="21" as="geometry" />
        </mxCell>
        <mxCell id="gUQ9yx4PIjHJ4dBJeEt3-7" value="elections votes smart contract" style="text;html=1;strokeColor=none;fillColor=none;align=center;verticalAlign=middle;whiteSpace=wrap;rounded=0;" parent="1" vertex="1">
          <mxGeometry x="364.43" y="441.25" width="94.5" height="20" as="geometry" />
        </mxCell>
        <mxCell id="gUQ9yx4PIjHJ4dBJeEt3-10" value="CC2" style="rounded=0;whiteSpace=wrap;html=1;fontColor=#FFFFFF;strokeColor=#B20000;strokeWidth=1.5;fillColor=#FF0000;gradientColor=none;" parent="1" vertex="1">
          <mxGeometry x="326.56" y="479.25" width="30.25" height="21" as="geometry" />
        </mxCell>
        <mxCell id="gUQ9yx4PIjHJ4dBJeEt3-11" value="channel 2 configuration" style="text;html=1;strokeColor=none;fillColor=none;align=center;verticalAlign=middle;whiteSpace=wrap;rounded=0;" parent="1" vertex="1">
          <mxGeometry x="366.81" y="479.25" width="89.75" height="20" as="geometry" />
        </mxCell>
        <mxCell id="gUQ9yx4PIjHJ4dBJeEt3-13" value="channel 1 configuration" style="text;html=1;strokeColor=none;fillColor=none;align=center;verticalAlign=middle;whiteSpace=wrap;rounded=0;" parent="1" vertex="1">
          <mxGeometry x="651.63" y="477.5" width="86" height="20" as="geometry" />
        </mxCell>
        <mxCell id="gUQ9yx4PIjHJ4dBJeEt3-14" value="CC2" style="rounded=0;whiteSpace=wrap;html=1;fontColor=#FFFFFF;strokeColor=#0050EF;strokeWidth=1.5;fillColor=#0050EF;gradientColor=none;" parent="1" vertex="1">
          <mxGeometry x="589.38" y="478" width="31.25" height="19.5" as="geometry" />
        </mxCell>
        <mxCell id="u5LcBU2NN0bcTUItKV3n-4" value="" style="verticalLabelPosition=bottom;verticalAlign=top;html=1;shape=mxgraph.basic.acute_triangle;dx=0.5;strokeColor=#36393d;fillColor=#f9f7ed;" parent="1" vertex="1">
          <mxGeometry x="586" y="361.5" width="59" height="37" as="geometry" />
        </mxCell>
        <mxCell id="u5LcBU2NN0bcTUItKV3n-5" value="&lt;b&gt;org3&lt;/b&gt;" style="text;html=1;strokeColor=none;fillColor=none;align=center;verticalAlign=middle;whiteSpace=wrap;rounded=0;" parent="1" vertex="1">
          <mxGeometry x="599.5" y="372.5" width="30" height="26" as="geometry" />
        </mxCell>
        <mxCell id="u5LcBU2NN0bcTUItKV3n-8" value="RCA-org3&lt;br&gt;&lt;span style=&quot;color: rgb(77, 77, 77);&quot;&gt;0.0.0.0:7056&lt;/span&gt;" style="rounded=1;whiteSpace=wrap;html=1;" parent="1" vertex="1">
          <mxGeometry x="160" y="387.5" width="80" height="42" as="geometry" />
        </mxCell>
        <mxCell id="rf5dx0FRQNLeN_WatCqE-11" style="edgeStyle=orthogonalEdgeStyle;rounded=0;orthogonalLoop=1;jettySize=auto;html=1;exitX=0.25;exitY=1;exitDx=0;exitDy=0;entryX=0.901;entryY=0.178;entryDx=0;entryDy=0;startArrow=none;startFill=0;endArrow=none;endFill=0;strokeWidth=1.5;strokeColor=#3333FF;entryPerimeter=0;" parent="1" source="u5LcBU2NN0bcTUItKV3n-9" target="VEHc4ffAzNuQ5ULbZsqk-5" edge="1">
          <mxGeometry relative="1" as="geometry" />
        </mxCell>
        <mxCell id="_WFnFw3g4zazNdVXs9AY-4" style="edgeStyle=orthogonalEdgeStyle;rounded=0;orthogonalLoop=1;jettySize=auto;html=1;exitX=0.5;exitY=1;exitDx=0;exitDy=0;entryX=0.869;entryY=0.173;entryDx=0;entryDy=0;entryPerimeter=0;endArrow=none;endFill=0;strokeColor=#FF3333;strokeWidth=1.5;" parent="1" source="u5LcBU2NN0bcTUItKV3n-9" target="VEHc4ffAzNuQ5ULbZsqk-6" edge="1">
          <mxGeometry relative="1" as="geometry">
            <Array as="points">
              <mxPoint x="661" y="246" />
              <mxPoint x="661" y="246" />
            </Array>
          </mxGeometry>
        </mxCell>
        <mxCell id="_WFnFw3g4zazNdVXs9AY-5" value="L1" style="shape=document;whiteSpace=wrap;html=1;boundedLbl=1;fontColor=#ffffff;strokeColor=#001DBC;fillColor=#0050ef;" parent="1" vertex="1">
          <mxGeometry x="718" y="144.5" width="30" height="30" as="geometry" />
        </mxCell>
        <mxCell id="_WFnFw3g4zazNdVXs9AY-6" value="SEI" style="rounded=0;whiteSpace=wrap;html=1;fontColor=#FFFFFF;strokeColor=#0050EF;strokeWidth=1.5;fillColor=#0050EF;gradientColor=none;" parent="1" vertex="1">
          <mxGeometry x="717" y="103.5" width="33" height="30" as="geometry" />
        </mxCell>
        <mxCell id="_WFnFw3g4zazNdVXs9AY-7" value="L2" style="shape=document;whiteSpace=wrap;html=1;boundedLbl=1;fontColor=#ffffff;strokeColor=#B20000;fillColor=#FF3333;" parent="1" vertex="1">
          <mxGeometry x="695" y="151.5" width="30" height="30" as="geometry" />
        </mxCell>
        <mxCell id="_WFnFw3g4zazNdVXs9AY-8" value="SV" style="rounded=0;whiteSpace=wrap;html=1;fontColor=#FFFFFF;strokeColor=#B20000;strokeWidth=1.5;fillColor=#FF0000;gradientColor=none;" parent="1" vertex="1">
          <mxGeometry x="692" y="110.5" width="33" height="30" as="geometry" />
        </mxCell>
        <mxCell id="u5LcBU2NN0bcTUItKV3n-9" value="peer1-org3&lt;br&gt;&lt;span style=&quot;color: rgba(0, 0, 0, 0); font-family: monospace; font-size: 0px; text-align: start;&quot;&gt;%3CmxGraphModel%3E%3Croot%3E%3CmxCell%20id%3D%220%22%2F%3E%3CmxCell%20id%3D%221%22%20parent%3D%220%22%2F%3E%3CmxCell%20id%3D%222%22%20style%3D%22edgeStyle%3DorthogonalEdgeStyle%3Brounded%3D0%3BorthogonalLoop%3D1%3BjettySize%3Dauto%3Bhtml%3D1%3BexitX%3D0.5%3BexitY%3D1%3BexitDx%3D0%3BexitDy%3D0%3BentryX%3D0.266%3BentryY%3D0.065%3BentryDx%3D0%3BentryDy%3D0%3BentryPerimeter%3D0%3BendArrow%3Dnone%3BendFill%3D0%3BstrokeColor%3D%233333FF%3BstrokeWidth%3D1.5%3B%22%20edge%3D%221%22%20parent%3D%221%22%3E%3CmxGeometry%20relative%3D%221%22%20as%3D%22geometry%22%3E%3CArray%20as%3D%22points%22%3E%3CmxPoint%20x%3D%22331%22%20y%3D%22187%22%2F%3E%3CmxPoint%20x%3D%22331%22%20y%3D%22210%22%2F%3E%3CmxPoint%20x%3D%22330%22%20y%3D%22210%22%2F%3E%3CmxPoint%20x%3D%22330%22%20y%3D%22247%22%2F%3E%3C%2FArray%3E%3CmxPoint%20x%3D%22330.00000000000006%22%20y%3D%22187%22%20as%3D%22sourcePoint%22%2F%3E%3CmxPoint%20x%3D%22331.18%22%20y%3D%22246.625%22%20as%3D%22targetPoint%22%2F%3E%3C%2FmxGeometry%3E%3C%2FmxCell%3E%3C%2Froot%3E%3C%2FmxGraphModel%3E&lt;/span&gt;&lt;span style=&quot;color: rgb(77, 77, 77);&quot;&gt;0.0.0.0:20051&lt;/span&gt;&lt;span style=&quot;color: rgba(0, 0, 0, 0); font-family: monospace; font-size: 0px; text-align: start;&quot;&gt;&lt;br&gt;&lt;/span&gt;" style="rounded=1;whiteSpace=wrap;html=1;" parent="1" vertex="1">
          <mxGeometry x="621.5" y="128" width="80" height="37" as="geometry" />
        </mxCell>
        <mxCell id="_WFnFw3g4zazNdVXs9AY-21" style="edgeStyle=orthogonalEdgeStyle;rounded=0;orthogonalLoop=1;jettySize=auto;html=1;exitX=0;exitY=0.5;exitDx=0;exitDy=0;entryX=0.102;entryY=0.771;entryDx=0;entryDy=0;endArrow=none;endFill=0;strokeColor=#3333FF;strokeWidth=1.5;entryPerimeter=0;" parent="1" source="_WFnFw3g4zazNdVXs9AY-9" target="VEHc4ffAzNuQ5ULbZsqk-5" edge="1">
          <mxGeometry relative="1" as="geometry">
            <Array as="points">
              <mxPoint x="330" y="334" />
            </Array>
          </mxGeometry>
        </mxCell>
        <mxCell id="_WFnFw3g4zazNdVXs9AY-35" style="edgeStyle=orthogonalEdgeStyle;rounded=0;orthogonalLoop=1;jettySize=auto;html=1;exitX=0.5;exitY=0;exitDx=0;exitDy=0;entryX=0.323;entryY=0.949;entryDx=0;entryDy=0;entryPerimeter=0;endArrow=none;endFill=0;strokeColor=#3333FF;strokeWidth=1.5;" parent="1" source="_WFnFw3g4zazNdVXs9AY-9" target="VEHc4ffAzNuQ5ULbZsqk-6" edge="1">
          <mxGeometry relative="1" as="geometry" />
        </mxCell>
        <mxCell id="_WFnFw3g4zazNdVXs9AY-23" style="edgeStyle=orthogonalEdgeStyle;rounded=0;orthogonalLoop=1;jettySize=auto;html=1;exitX=1;exitY=0.5;exitDx=0;exitDy=0;entryX=0.135;entryY=0.829;entryDx=0;entryDy=0;endArrow=none;endFill=0;strokeColor=#FF3333;strokeWidth=1.5;entryPerimeter=0;" parent="1" source="VEHc4ffAzNuQ5ULbZsqk-57" target="VEHc4ffAzNuQ5ULbZsqk-6" edge="1">
          <mxGeometry relative="1" as="geometry">
            <Array as="points">
              <mxPoint x="500" y="283" />
              <mxPoint x="500" y="268" />
              <mxPoint x="500" y="268" />
            </Array>
          </mxGeometry>
        </mxCell>
        <mxCell id="_WFnFw3g4zazNdVXs9AY-24" style="edgeStyle=orthogonalEdgeStyle;rounded=0;orthogonalLoop=1;jettySize=auto;html=1;exitX=0.5;exitY=0;exitDx=0;exitDy=0;endArrow=none;endFill=0;strokeColor=#3333FF;strokeWidth=1.5;entryX=0.231;entryY=0.905;entryDx=0;entryDy=0;entryPerimeter=0;" parent="1" source="VEHc4ffAzNuQ5ULbZsqk-57" target="VEHc4ffAzNuQ5ULbZsqk-5" edge="1">
          <mxGeometry relative="1" as="geometry">
            <mxPoint x="380" y="240" as="targetPoint" />
            <Array as="points" />
          </mxGeometry>
        </mxCell>
        <mxCell id="_WFnFw3g4zazNdVXs9AY-30" value="SEI" style="rounded=0;whiteSpace=wrap;html=1;fontColor=#FFFFFF;strokeColor=#0050EF;strokeWidth=1.5;fillColor=#0050EF;gradientColor=none;" parent="1" vertex="1">
          <mxGeometry x="589.38" y="440.75" width="31.25" height="19.5" as="geometry" />
        </mxCell>
        <mxCell id="VEHc4ffAzNuQ5ULbZsqk-6" value="&lt;b&gt;&lt;font color=&quot;#ff3333&quot;&gt;Channel 2&lt;/font&gt;&lt;/b&gt;" style="ellipse;whiteSpace=wrap;html=1;strokeColor=#FF3333;strokeWidth=1.5;gradientColor=none;fillColor=none;" parent="1" vertex="1">
          <mxGeometry x="470" y="241.5" width="220" height="30" as="geometry" />
        </mxCell>
        <mxCell id="_WFnFw3g4zazNdVXs9AY-36" value="L1" style="shape=document;whiteSpace=wrap;html=1;boundedLbl=1;fontColor=#ffffff;strokeColor=#001DBC;fillColor=#0050ef;" parent="1" vertex="1">
          <mxGeometry x="433" y="286.25" width="30" height="30" as="geometry" />
        </mxCell>
        <mxCell id="_WFnFw3g4zazNdVXs9AY-37" value="SEI" style="rounded=0;whiteSpace=wrap;html=1;fontColor=#FFFFFF;strokeColor=#0050EF;strokeWidth=1.5;fillColor=#0050EF;gradientColor=none;" parent="1" vertex="1">
          <mxGeometry x="432" y="241.25" width="33" height="30" as="geometry" />
        </mxCell>
        <mxCell id="_WFnFw3g4zazNdVXs9AY-38" value="L2" style="shape=document;whiteSpace=wrap;html=1;boundedLbl=1;fontColor=#ffffff;strokeColor=#B20000;fillColor=#FF3333;" parent="1" vertex="1">
          <mxGeometry x="410" y="293.25" width="30" height="30" as="geometry" />
        </mxCell>
        <mxCell id="_WFnFw3g4zazNdVXs9AY-39" value="SV" style="rounded=0;whiteSpace=wrap;html=1;fontColor=#FFFFFF;strokeColor=#B20000;strokeWidth=1.5;fillColor=#FF0000;gradientColor=none;" parent="1" vertex="1">
          <mxGeometry x="407" y="248.25" width="33" height="30" as="geometry" />
        </mxCell>
        <mxCell id="VEHc4ffAzNuQ5ULbZsqk-57" value="peer1-org2&lt;br&gt;&lt;span style=&quot;color: rgb(77, 77, 77);&quot;&gt;0.0.0.0:9051&lt;/span&gt;" style="rounded=1;whiteSpace=wrap;html=1;strokeColor=#36393d;fillColor=#ffcc99;" parent="1" vertex="1">
          <mxGeometry x="344.5" y="265.25" width="71" height="36.5" as="geometry" />
        </mxCell>
        <mxCell id="_WFnFw3g4zazNdVXs9AY-40" value="L1" style="shape=document;whiteSpace=wrap;html=1;boundedLbl=1;fontColor=#ffffff;strokeColor=#001DBC;fillColor=#0050ef;" parent="1" vertex="1">
          <mxGeometry x="599" y="335" width="30" height="30" as="geometry" />
        </mxCell>
        <mxCell id="_WFnFw3g4zazNdVXs9AY-41" value="SEI" style="rounded=0;whiteSpace=wrap;html=1;fontColor=#FFFFFF;strokeColor=#0050EF;strokeWidth=1.5;fillColor=#0050EF;gradientColor=none;" parent="1" vertex="1">
          <mxGeometry x="598" y="294" width="33" height="30" as="geometry" />
        </mxCell>
        <mxCell id="_WFnFw3g4zazNdVXs9AY-42" value="L2" style="shape=document;whiteSpace=wrap;html=1;boundedLbl=1;fontColor=#ffffff;strokeColor=#B20000;fillColor=#FF3333;" parent="1" vertex="1">
          <mxGeometry x="576" y="342" width="30" height="30" as="geometry" />
        </mxCell>
        <mxCell id="_WFnFw3g4zazNdVXs9AY-43" value="SV" style="rounded=0;whiteSpace=wrap;html=1;fontColor=#FFFFFF;strokeColor=#B20000;strokeWidth=1.5;fillColor=#FF0000;gradientColor=none;" parent="1" vertex="1">
          <mxGeometry x="573" y="301" width="33" height="30" as="geometry" />
        </mxCell>
        <mxCell id="_WFnFw3g4zazNdVXs9AY-9" value="peer2-org3&lt;br&gt;&lt;span style=&quot;color: rgba(0, 0, 0, 0); font-family: monospace; font-size: 0px; text-align: start;&quot;&gt;%3CmxGraphModel%3E%3Croot%3E%3CmxCell%20id%3D%220%22%2F%3E%3CmxCell%20id%3D%221%22%20parent%3D%220%22%2F%3E%3CmxCell%20id%3D%222%22%20style%3D%22edgeStyle%3DorthogonalEdgeStyle%3Brounded%3D0%3BorthogonalLoop%3D1%3BjettySize%3Dauto%3Bhtml%3D1%3BexitX%3D0.5%3BexitY%3D1%3BexitDx%3D0%3BexitDy%3D0%3BentryX%3D0.266%3BentryY%3D0.065%3BentryDx%3D0%3BentryDy%3D0%3BentryPerimeter%3D0%3BendArrow%3Dnone%3BendFill%3D0%3BstrokeColor%3D%233333FF%3BstrokeWidth%3D1.5%3B%22%20edge%3D%221%22%20parent%3D%221%22%3E%3CmxGeometry%20relative%3D%221%22%20as%3D%22geometry%22%3E%3CArray%20as%3D%22points%22%3E%3CmxPoint%20x%3D%22331%22%20y%3D%22187%22%2F%3E%3CmxPoint%20x%3D%22331%22%20y%3D%22210%22%2F%3E%3CmxPoint%20x%3D%22330%22%20y%3D%22210%22%2F%3E%3CmxPoint%20x%3D%22330%22%20y%3D%22247%22%2F%3E%3C%2FArray%3E%3CmxPoint%20x%3D%22330.00000000000006%22%20y%3D%22187%22%20as%3D%22sourcePoint%22%2F%3E%3CmxPoint%20x%3D%22331.18%22%20y%3D%22246.625%22%20as%3D%22targetPoint%22%2F%3E%3C%2FmxGeometry%3E%3C%2FmxCell%3E%3C%2Froot%3E%3C%2FmxGraphModel%3E&lt;/span&gt;&lt;span style=&quot;color: rgb(77, 77, 77);&quot;&gt;0.0.0.0:30051&lt;/span&gt;&lt;span style=&quot;color: rgba(0, 0, 0, 0); font-family: monospace; font-size: 0px; text-align: start;&quot;&gt;&lt;br&gt;&lt;/span&gt;" style="rounded=1;whiteSpace=wrap;html=1;" parent="1" vertex="1">
          <mxGeometry x="501" y="315.25" width="80" height="37" as="geometry" />
        </mxCell>
        <mxCell id="_WFnFw3g4zazNdVXs9AY-44" value="L1" style="shape=document;whiteSpace=wrap;html=1;boundedLbl=1;fontColor=#ffffff;strokeColor=#001DBC;fillColor=#0050ef;" parent="1" vertex="1">
          <mxGeometry x="770.5" y="457.5" width="30" height="30" as="geometry" />
        </mxCell>
        <mxCell id="_WFnFw3g4zazNdVXs9AY-45" value="ledger channel 1" style="text;html=1;strokeColor=none;fillColor=none;align=center;verticalAlign=middle;whiteSpace=wrap;rounded=0;" parent="1" vertex="1">
          <mxGeometry x="800.5" y="460.5" width="70" height="20" as="geometry" />
        </mxCell>
        <mxCell id="_WFnFw3g4zazNdVXs9AY-46" value="L2" style="shape=document;whiteSpace=wrap;html=1;boundedLbl=1;fontColor=#ffffff;strokeColor=#B20000;fillColor=#FF3333;" parent="1" vertex="1">
          <mxGeometry x="468.43" y="457.5" width="30" height="30" as="geometry" />
        </mxCell>
        <mxCell id="_WFnFw3g4zazNdVXs9AY-47" value="ledger channel 2" style="text;html=1;strokeColor=none;fillColor=none;align=center;verticalAlign=middle;whiteSpace=wrap;rounded=0;" parent="1" vertex="1">
          <mxGeometry x="499.43" y="460.5" width="70" height="20" as="geometry" />
        </mxCell>
      </root>
    </mxGraphModel>
  </diagram>
</mxfile>
